<svg width="500" height="500" viewBox="0 0 500 500" fill="none" xmlns="http://www.w3.org/2000/svg">
<g clip-path="url(#clip0_118_96)">
<rect width="500" height="500" fill="white"/>
<g clip-path="url(#clip1_118_96)">
<path d="M296.816 368.76C301.283 367.235 305.672 365.449 309.968 363.37C349.815 344.08 294.675 325.162 278.278 322.404C254.992 318.492 230.983 317.939 207.426 318.579C192.779 318.982 126.954 317.741 122.371 337.616C115.631 366.84 190.942 372.901 207.581 374.56C237.435 377.54 268.627 378.377 296.816 368.76Z" fill="#3D280E"/>
<path d="M284.978 386.201C279.492 383.783 273.624 380.14 272.449 374.181C270.931 366.468 278.138 359.854 285.228 356.693C294.917 352.362 305.882 351.034 316.311 352.907C312.062 352.718 310.606 346.253 313.299 342.911C315.992 339.568 320.677 338.809 324.926 338.643C340.032 338.043 354.928 341.868 369.574 345.669C374.182 346.862 379.264 348.403 381.7 352.544C385.241 358.566 380.711 366.784 374.368 369.558C368.026 372.332 360.772 371.249 353.955 370.119C358.764 374.323 359.838 382.281 356.321 387.639C350.959 395.802 334.421 395.234 325.876 395.107C311.844 394.902 297.859 391.875 284.978 386.201Z" fill="#3D280E"/>
<path d="M221.247 361.592C243.295 366.824 265.974 366.855 288.403 363.797C321.774 359.237 338.296 319.59 347.246 290.216C350.717 278.829 369.411 163.523 358.08 157.864C348.733 153.194 325.331 162.203 315.042 163.096C298.582 164.526 282.029 164.645 265.53 164.305C226.757 163.515 188.429 157.983 150.115 162.882C146.847 199.669 156.964 274.546 171.097 308.369C181.09 328.662 193.246 352.275 216.127 360.13C217.776 360.691 219.489 361.173 221.247 361.592Z" fill="#F5D4A2"/>
<path d="M292.924 350.924C270.495 353.99 247.817 353.951 225.769 348.719C224.01 348.3 222.298 347.81 220.648 347.241C197.768 339.386 185.611 315.781 175.619 295.48C162.925 265.134 153.477 201.684 154.045 162.408C152.73 162.551 151.423 162.709 150.107 162.875C146.839 199.661 156.956 274.538 171.089 308.361C181.082 328.654 193.238 352.267 216.119 360.122C217.776 360.691 219.489 361.181 221.24 361.6C243.288 366.832 265.966 366.863 288.395 363.805C319.992 359.49 336.475 323.723 345.737 294.997C335.892 320.586 319.922 347.241 292.924 350.924Z" fill="#CC9C62"/>
<path d="M296.917 353.634C273.281 356.803 249.373 356.764 226.135 351.358C224.283 350.924 222.477 350.426 220.734 349.833C175.914 334.747 165.065 276.837 157.89 236.289C153.61 212.068 151.073 187.531 150.333 162.938C149.454 173.029 149.197 183.168 149.563 193.291C139.313 189.04 126.978 192.754 118.954 200.506C92.2834 226.308 102.128 268.137 125.834 292.2C131.741 298.19 138.574 303.311 146.138 306.938C149.999 308.787 154.038 310.281 158.194 311.277C161.244 312.004 168.583 311.229 170.91 312.652C177.735 316.808 183.689 333.072 189.121 339.813C196.297 348.727 205.239 356.384 216.111 360.114C217.769 360.683 219.481 361.173 221.232 361.592C243.28 366.824 265.958 366.855 288.387 363.797C302.948 361.806 314.295 353.144 323.214 341.559C315.782 347.865 307.096 352.267 296.917 353.634ZM161.812 280.441C161.82 281.531 161.797 282.614 161.735 283.673C161.361 289.971 161.719 291.149 154.73 291.283C150.512 291.37 146.208 289.442 142.675 287.277C127.787 278.149 117.25 255.366 118.9 237.893C120.339 222.642 131.819 206.157 148.644 209.334C153.991 210.369 153.874 234.045 154.435 238.186C156.232 251.407 161.68 266.833 161.812 280.441Z" fill="#CC9C62"/>
<path d="M358.134 159.374C357.683 154.893 355.13 150.309 349.667 146.026C323.019 125.116 140.411 114.566 150.894 170.508C156.847 202.3 249.584 195.963 270.192 194.872C292.94 193.663 321.354 192.628 342.102 181.801C342.118 181.793 342.133 181.785 342.149 181.777C351.542 176.862 359.037 168.327 358.134 159.374Z" fill="#F5D4A2"/>
<path d="M349.122 159.073C348.709 155.415 346.382 151.669 341.386 148.16C317.058 131.067 150.294 122.445 159.859 168.169C165.299 194.153 249.98 188.969 268.799 188.076C289.57 187.088 315.525 186.242 334.467 177.399C334.483 177.392 334.499 177.384 334.506 177.384C343.106 173.361 349.947 166.391 349.122 159.073Z" fill="#CC9C62"/>
<path d="M167.136 177.842C189.145 192.699 252.798 188.842 268.806 188.084C289.578 187.096 315.533 186.25 334.475 177.407C334.491 177.4 334.506 177.392 334.514 177.392C336.335 176.538 338.079 175.55 339.682 174.46C314.926 160.694 198.281 153.32 167.136 177.842Z" fill="#45301C"/>
<path d="M237.404 161.974C275.359 163.657 311.05 170.991 326.568 180.521C329.308 179.604 331.954 178.577 334.475 177.4C334.491 177.392 334.506 177.384 334.514 177.384C336.335 176.53 338.079 175.542 339.682 174.452C325.206 166.399 279.266 160.543 237.404 161.974Z" fill="#362512"/>
<path d="M336.359 182.204C335.277 183.168 326.366 184.994 324.451 185.626C318.124 187.712 311.447 189.048 304.902 190.178C296.372 191.656 287.741 192.525 279.118 193.165C274.682 193.497 270.238 193.734 265.795 194.066C263.693 194.224 261.577 194.343 259.475 194.58C257.475 194.801 254.066 196.065 252.261 195.164C252.191 195.133 252.113 195.157 252.09 195.236C250.51 200.317 269.017 198.586 271.499 198.483C292.629 197.543 319.58 197.085 336.359 182.204Z" fill="#FDFFEB"/>
<path d="M232.703 195.433C227.061 194.746 221.302 194.943 215.629 194.564C209.971 194.185 204.336 193.165 198.686 192.904C197.9 192.865 197.791 194.034 198.507 194.264C203.939 196.002 209.971 196.524 215.629 196.927C221.294 197.338 227.24 197.622 232.843 196.492C233.482 196.366 233.248 195.496 232.703 195.433Z" fill="#FDFFEB"/>
<path d="M285.329 162.163C280.503 160.907 275.235 161.097 270.277 160.836C264.814 160.551 259.351 160.306 253.879 160.172C243.326 159.919 232.734 160.069 222.22 161.097C203.667 162.922 184.195 167.221 168.124 177.218C167.252 177.763 168.015 179.027 168.918 178.593C180.031 173.266 191.347 169.307 203.06 166.652C202.702 166.929 202.453 167.355 202.476 167.822C202.515 168.628 203.122 169.315 203.947 169.315C204.717 169.315 205.457 168.628 205.418 167.822C205.387 167.134 204.943 166.541 204.305 166.375C204.445 166.344 204.577 166.32 204.717 166.289C204.982 166.905 205.667 167.363 206.328 167.102C206.663 166.968 206.92 166.857 207.184 166.62C207.426 166.399 207.535 166.059 207.527 165.727C213.006 164.645 218.57 163.823 224.244 163.293C234.089 162.377 243.996 162.179 253.879 162.353C259.102 162.44 264.316 162.63 269.53 162.883C274.651 163.135 280.068 163.997 285.165 163.309C285.772 163.246 286.021 162.345 285.329 162.163Z" fill="#87602D"/>
<path d="M299.874 164.827C297.251 163.957 294.434 163.649 291.695 163.349C291.204 163.293 291.095 164.115 291.578 164.218C294.271 164.795 297.041 165.38 299.796 165.38C300.123 165.38 300.17 164.921 299.874 164.827Z" fill="#543B22"/>
<path d="M306.567 174.46C297.345 171.631 286.761 171.567 277.196 171.069C266.931 170.532 256.642 170.493 246.369 170.935C236.743 171.354 227.147 172.231 217.598 173.567C209.574 174.689 200.608 175.795 194.398 181.588C194.055 181.904 194.491 182.449 194.888 182.228C203.013 177.597 211.621 176.198 220.765 175.116C230.244 174.001 239.77 173.251 249.303 172.919C258.596 172.603 267.911 172.682 277.196 173.172C286.885 173.677 296.746 175.692 306.419 175.55C307.042 175.55 307.159 174.641 306.567 174.46Z" fill="#87602D"/>
<path d="M280.745 184.551C279.445 181.817 273.943 182.109 271.491 181.825C261.374 180.655 250.167 180.165 240.182 182.576C239.887 182.647 239.949 183.121 240.252 183.121C246.424 182.994 252.525 182.315 258.713 182.489C261.561 182.568 264.402 182.749 267.242 183.026C269.056 183.208 270.869 183.421 272.674 183.682C273.616 183.816 274.55 183.959 275.484 184.117C276.877 184.085 277.928 184.733 278.636 186.069C277.468 186.1 277.461 187.949 278.636 187.918C280.34 187.878 281.57 186.29 280.745 184.551Z" fill="#87602D"/>
<path d="M314.778 175.124C313.782 174.855 312.155 174.981 311.789 176.151C311.532 176.53 311.416 176.996 311.665 177.439C311.875 177.795 312.202 177.913 312.56 177.921C312.723 177.984 312.894 178.024 313.081 178.04C313.221 178.063 313.369 178.048 313.509 178.016C313.626 178.016 313.735 178 313.852 178.008C313.883 178.008 313.898 178.008 313.914 178.008C313.929 178.016 313.953 178.024 313.992 178.032C314.739 178.221 315.626 177.787 315.813 176.981C315.992 176.183 315.579 175.337 314.778 175.124Z" fill="#87602D"/>
<path d="M298.559 164.858C298.551 164.795 298.543 164.763 298.536 164.74C298.536 164.732 298.536 164.732 298.536 164.724C298.497 164.234 298.294 163.696 297.827 163.467C297.143 163.135 296.092 163.143 295.781 163.997C295.516 164.7 295.718 165.411 296.248 165.862C296.255 165.877 296.263 165.893 296.271 165.909C296.279 165.925 296.333 166.02 296.364 166.067C296.372 166.115 296.411 166.249 296.411 166.249C296.419 166.273 296.466 166.367 296.512 166.47C296.52 166.605 296.536 166.739 296.582 166.865C296.676 167.118 296.847 167.253 297.111 167.276C297.384 167.3 297.664 167.174 297.859 166.992C297.866 166.984 298.108 166.755 297.944 166.889C298.185 166.676 298.31 166.565 298.427 166.257C298.52 165.988 298.598 165.672 298.606 165.388C298.621 165.198 298.59 165.024 298.559 164.858Z" fill="#543B22"/>
<path d="M298.73 168.936C298.645 168.272 298.146 167.766 297.493 167.679C296.917 167.6 296.341 167.869 296.037 168.383C295.726 168.92 295.781 169.75 296.263 170.176C296.279 170.192 296.302 170.208 296.318 170.224C296.823 170.666 297.368 170.706 297.96 170.437L298.03 170.406C298.567 170.169 298.808 169.465 298.73 168.936Z" fill="#422D16"/>
<path d="M311.369 168.414C310.863 168.438 310.373 168.691 310.116 169.149C309.805 169.694 309.875 170.501 310.342 170.935C310.482 171.062 310.622 171.188 310.778 171.275C310.793 171.291 310.809 171.307 310.824 171.322C311.182 171.607 311.556 171.615 311.922 171.322C311.937 171.307 311.953 171.291 311.961 171.275C312.116 171.18 312.256 171.062 312.396 170.927C313.315 170.082 312.614 168.359 311.369 168.414Z" fill="#543B22"/>
<path d="M325.735 173.986C325.626 173.006 324.35 173.006 324.233 173.986C324.218 174.112 324.202 174.238 324.187 174.373C324.14 174.807 324.591 175.179 324.981 175.179C325.37 175.179 325.829 174.807 325.774 174.373C325.767 174.238 325.751 174.112 325.735 173.986Z" fill="#543B22"/>
<path d="M215.761 164.969C214.92 164.605 213.87 165.237 213.909 166.209C213.909 166.249 213.909 166.281 213.909 166.32L213.924 166.273C213.916 166.486 213.986 166.699 214.088 166.905C214.539 167.758 215.745 167.766 216.298 167.039C216.835 166.336 216.562 165.316 215.761 164.969Z" fill="#87602D"/>
<path d="M222.578 180.165C222.15 179.723 221.668 179.668 221.1 179.66C220.329 179.652 219.59 180.355 219.629 181.153C219.668 181.951 220.275 182.655 221.1 182.647C221.668 182.639 222.15 182.584 222.578 182.141C223.107 181.596 223.107 180.711 222.578 180.165Z" fill="#87602D"/>
<path d="M230.166 176.759C229.824 176.578 229.458 176.419 229.061 176.427C228.976 176.419 228.898 176.427 228.812 176.451C228.563 176.475 228.555 176.483 228.781 176.475C228.656 176.491 228.532 176.506 228.407 176.522C228.26 176.57 228.119 176.633 227.987 176.712C227.512 176.965 227.279 177.557 227.341 178.071C227.419 178.656 227.793 178.988 228.306 179.209C228.454 179.272 228.439 179.264 228.26 179.185C228.392 179.257 228.524 179.312 228.664 179.351C228.789 179.391 228.913 179.422 229.038 179.47C229.715 179.731 230.501 179.233 230.758 178.609C231.038 177.961 230.82 177.099 230.166 176.759Z" fill="#87602D"/>
<path d="M233.264 181.928C233.209 181.872 233.163 181.817 233.108 181.77C232.89 181.548 232.517 181.548 232.299 181.77C232.244 181.825 232.198 181.88 232.143 181.928C231.824 182.228 231.738 182.465 231.785 182.655C231.832 182.987 232.252 183.137 232.688 183.129C232.696 183.129 232.703 183.129 232.703 183.129H232.711C233.147 183.137 233.575 182.987 233.622 182.655C233.668 182.465 233.583 182.22 233.264 181.928Z" fill="#87602D"/>
<path d="M238.252 177.937C237.419 177.937 237.412 179.257 238.252 179.257C239.085 179.257 239.085 177.937 238.252 177.937Z" fill="#87602D"/>
<path d="M331.915 143.347C322.747 140.202 312.715 138.645 303.159 137.239C294.045 135.895 284.247 134.299 275.048 135.334C274.69 135.374 274.527 135.958 274.955 136.038C284.263 137.831 293.921 137.958 303.306 139.42C312.793 140.898 321.984 143.458 331.37 145.339C332.654 145.592 333.16 143.774 331.915 143.347Z" fill="#FDFFEB"/>
<path d="M144.099 195.362C132.052 193.205 120.184 200.791 113.491 210.543C106.424 220.824 102.704 237.388 108.891 248.941C109.421 249.921 110.681 249.36 110.782 248.42C111.382 242.967 111.078 237.348 111.623 231.864C112.222 225.85 114.051 219.899 117.195 214.747C123.055 205.137 132.823 199.969 143.656 198.657C145.329 198.46 146.115 195.718 144.099 195.362Z" fill="#F5D4A2"/>
<path d="M184.607 190.257C177.486 188.763 170.684 187.57 164.583 183.247C158.505 178.948 155.026 173.116 152.403 166.217C152.24 165.791 151.547 165.806 151.571 166.336C152.154 181.825 170.031 192.43 183.238 195.315C186.483 196.018 187.861 190.937 184.607 190.257Z" fill="#CC9C62"/>
<path d="M352.702 327.469C342.032 328.157 330.358 333.538 327.409 343.977C324.428 354.543 332.187 365.883 342.172 370.119C352.165 374.347 363.551 373.075 374.112 370.664C384.065 368.396 401.615 358.558 395.872 345.218C390.346 332.377 364.952 326.679 352.702 327.469Z" fill="#6E4115"/>
<path d="M359.177 358.929C368.874 360.336 380.089 361.75 388.945 356.377C398.152 350.789 391.607 338.082 384.525 333.341C378.213 329.113 370.306 328.141 362.741 328.362C355.511 328.575 333.658 329.437 331.658 339.339C329.323 350.916 351.418 357.799 359.177 358.929Z" fill="#915821"/>
<path d="M394.556 349.446C393.49 348.632 392.253 348.142 390.953 347.739C390.595 347.565 390.221 347.407 389.84 347.265C388.79 346.656 387.614 346.269 386.299 346.182C385.941 346.087 385.583 345.993 385.217 345.898C384.167 345.392 383.443 344.926 382.221 344.712C381.357 344.562 380.439 344.633 379.528 344.665C378.501 344.475 377.466 344.294 376.439 344.128C376.322 344.064 376.197 344.009 376.081 343.93C374.89 343.077 375.225 342.152 373.388 341.875C372.82 341.788 371.863 341.954 371.263 342.049C369.24 342.373 367.925 342.476 365.886 341.867C362.975 340.998 360.368 339.947 357.325 339.584C354.313 339.228 351.433 340.888 348.577 340.469C346.001 340.081 345.083 338.185 342.429 338.137C339.83 338.09 337.121 338.446 334.468 338.872C334.257 338.414 333.814 338.058 333.183 338.114L331.72 338.248C331.113 338.303 330.802 338.699 330.74 339.157C329.3 340.216 328.436 341.852 330.553 343.116C331.868 343.906 334.032 343.148 335.456 343.061C338.499 342.871 341.557 342.982 344.6 343.211C345.97 343.622 347.348 344.135 348.772 344.76C353.947 347.059 359.278 345.068 364.446 347.131C366.166 347.818 367.131 348.024 369.022 347.85C372.555 347.51 374.423 348.134 377.684 349.177C379.591 349.786 381.318 350.07 383.311 349.833C388.073 349.264 389.529 350.876 392.276 354.251C393.078 355.231 394.782 354.685 394.86 353.405C394.914 352.528 394.79 351.777 394.533 351.113C395.039 350.766 395.202 349.936 394.556 349.446Z" fill="#6E4115"/>
<path d="M383.217 358.818C382.524 358.755 381.77 358.969 381.155 359.293C380.89 359.435 380.61 359.617 380.376 359.806C380.088 360.035 379.987 360.312 379.754 360.565C379.443 360.905 379.746 361.529 380.221 361.3C380.664 361.087 381.279 360.984 381.754 360.842C382.33 360.676 382.914 360.581 383.482 360.375C384.275 360.099 383.964 358.882 383.217 358.818Z" fill="#593511"/>
<path d="M390.268 346.648C387.474 345.234 384.509 345.392 381.482 345.115C377.575 344.76 374.431 342.832 370.711 341.844C364.562 340.216 358.142 340.706 351.885 339.852C345.993 339.054 340.374 336.035 334.483 338.303C333.829 338.556 334.195 339.544 334.841 339.457C340.343 338.714 345.659 340.974 351.052 341.733C356.134 342.444 361.286 342.381 366.345 343.266C371.551 344.175 375.987 347.225 381.264 347.644C384.392 347.889 387.217 347.755 390.042 349.47C390.673 349.849 391.264 350.521 391.965 350.75C392.556 350.947 392.875 351.082 393.039 351.153C393.031 351.54 393.272 351.951 393.63 352.078C393.755 352.117 393.871 352.157 393.996 352.204C394.346 352.323 394.782 352.275 395.054 352.006C397.63 349.438 391.91 347.486 390.268 346.648Z" fill="#593511"/>
<path d="M385.287 362.035C381.139 363.568 377.559 365.836 373.162 366.863C369.286 367.764 365.38 367.883 361.426 368.128C360.897 368.159 360.827 369.052 361.333 369.179C369.045 371.036 380.345 369.321 386.4 363.797C387.318 362.967 386.361 361.64 385.287 362.035Z" fill="#915821"/>
<path d="M388.727 359.427C388.688 359.459 388.649 359.482 388.611 359.514C387.645 360.257 388.455 362.003 389.638 361.719C389.685 361.711 389.731 361.695 389.778 361.687C390.579 361.497 391.085 360.644 390.712 359.854C390.346 359.071 389.381 358.921 388.727 359.427Z" fill="#915821"/>
<path d="M372.197 371.233C368.135 370.419 363.675 371.478 359.551 371.352C354.974 371.218 350.375 370.562 346.048 369.029C336.172 365.52 330.405 358.415 327.362 348.529C327.261 348.205 326.693 348.134 326.708 348.553C326.988 357.799 334.973 366.018 342.701 369.858C347.231 372.111 352.212 373.32 357.224 373.762C361.94 374.181 368.088 374.616 372.415 372.411C372.983 372.126 372.773 371.352 372.197 371.233Z" fill="#593511"/>
<path d="M325.494 345.447C315.284 341.346 302.116 341.148 294.878 349.533C287.555 358.02 289.866 372.008 297.322 380.377C304.777 388.753 315.906 392.633 326.755 395.091C336.981 397.415 357.519 396.079 357.947 381.127C358.352 366.753 337.223 350.165 325.494 345.447Z" fill="#6E4115"/>
<path d="M317.945 377.547C326.343 383.166 336.156 389.464 346.702 388.413C357.667 387.315 357.068 372.6 352.539 365.046C348.499 358.313 341.573 353.887 334.452 350.734C327.65 347.715 306.972 338.801 300.847 347.107C293.672 356.835 311.229 373.051 317.945 377.547Z" fill="#915821"/>
<path d="M354.904 384.478C354.266 383.253 353.325 382.242 352.289 381.293C352.025 380.977 351.752 380.661 351.457 380.361C350.741 379.326 349.815 378.448 348.639 377.785C348.344 377.532 348.056 377.287 347.76 377.042C346.997 376.109 346.53 375.351 345.488 374.608C344.748 374.086 343.861 373.746 343.005 373.367C342.133 372.735 341.254 372.103 340.367 371.494C340.289 371.383 340.195 371.281 340.125 371.154C339.386 369.827 340.102 369.123 338.514 368.049C338.024 367.717 337.067 367.448 336.468 367.266C334.452 366.666 333.183 366.176 331.549 364.706C329.222 362.604 327.253 360.462 324.584 358.779C321.938 357.104 318.552 357.372 316.077 355.705C313.844 354.203 313.813 352.03 311.369 350.805C308.98 349.604 306.303 348.735 303.657 347.952C303.657 347.431 303.4 346.901 302.785 346.672L301.368 346.151C300.777 345.929 300.318 346.166 300.069 346.562C298.279 346.901 296.769 348.039 298.185 350.157C299.065 351.477 301.4 351.73 302.762 352.283C305.672 353.46 308.458 354.922 311.19 356.487C312.28 357.483 313.346 358.566 314.389 359.783C318.21 364.224 324.016 364.737 327.922 368.957C329.222 370.364 330.031 370.988 331.86 371.66C335.285 372.917 336.756 374.323 339.332 376.749C340.834 378.164 342.32 379.199 344.273 379.863C348.943 381.451 349.597 383.601 350.694 387.955C351.013 389.22 352.834 389.472 353.457 388.319C353.885 387.528 354.095 386.778 354.142 386.043C354.78 385.916 355.286 385.213 354.904 384.478Z" fill="#6E4115"/>
<path d="M340.328 388.137C339.713 387.773 338.919 387.631 338.211 387.663C337.9 387.679 337.573 387.718 337.269 387.789C336.903 387.876 336.686 388.089 336.366 388.224C335.931 388.406 335.946 389.117 336.483 389.109C336.981 389.109 337.604 389.283 338.11 389.37C338.717 389.472 339.3 389.638 339.915 389.71C340.756 389.796 340.997 388.532 340.328 388.137Z" fill="#593511"/>
<path d="M352.126 379.974C350.141 377.413 347.324 376.244 344.624 374.647C341.145 372.585 339.059 369.392 336.024 366.816C331.02 362.564 324.841 360.17 319.401 356.598C314.272 353.239 310.357 347.937 303.906 347.423C303.19 347.368 303.104 348.442 303.742 348.648C309.174 350.402 313.136 354.867 317.813 357.973C322.226 360.897 327.035 363.125 331.355 366.199C335.791 369.36 338.608 374.165 343.324 376.899C346.126 378.52 348.803 379.65 350.686 382.495C351.107 383.127 351.371 384.02 351.916 384.541C352.383 384.992 352.624 385.252 352.741 385.395C352.57 385.75 352.609 386.24 352.889 386.509C352.982 386.604 353.083 386.691 353.177 386.786C353.449 387.046 353.877 387.204 354.251 387.07C357.761 385.829 353.293 381.475 352.126 379.974Z" fill="#593511"/>
<path d="M340.857 392.049C336.343 391.63 332.04 392.143 327.518 391.14C323.525 390.255 319.852 388.627 316.078 387.094C315.58 386.888 315.12 387.686 315.541 388.026C321.907 393.187 333.137 396.608 341.145 394.174C342.344 393.811 342.032 392.159 340.857 392.049Z" fill="#915821"/>
<path d="M345.176 391.156C345.13 391.164 345.083 391.179 345.036 391.187C343.814 391.448 343.814 393.432 345.036 393.692C345.083 393.7 345.13 393.716 345.176 393.724C346.001 393.906 346.834 393.337 346.834 392.444C346.842 391.551 346.009 390.982 345.176 391.156Z" fill="#915821"/>
<path d="M324.732 394.767C321.307 392.207 316.708 391.203 312.933 389.251C308.746 387.094 304.754 384.438 301.392 381.088C293.734 373.438 291.446 364.271 292.878 353.737C292.925 353.397 292.426 353.073 292.255 353.468C288.527 362.185 292.395 373.367 297.921 380.369C301.158 384.47 305.268 387.813 309.727 390.452C313.922 392.942 319.447 396.079 324.42 395.953C325.082 395.945 325.222 395.131 324.732 394.767Z" fill="#593511"/>
<path d="M306.801 366.429C305.198 363.228 302.092 361.537 301.049 357.783C299.96 353.871 300.972 350.529 302.302 346.886C302.489 346.38 301.727 345.922 301.392 346.348C296.691 352.267 299.026 364.208 306.388 366.966C306.715 367.085 306.933 366.689 306.801 366.429Z" fill="#593511"/>
<path d="M299.236 359.996C299.189 359.988 299.135 359.988 299.088 359.98C298.115 359.893 298.115 361.6 299.088 361.513C299.135 361.505 299.189 361.505 299.236 361.497C300.193 361.418 300.193 360.083 299.236 359.996Z" fill="#593511"/>
<path opacity="0.2" d="M281.297 -11.7799C284.94 -12.9099 288.527 -14.2059 292.022 -15.7311C296.886 -17.8569 302.077 -21.0891 303.104 -26.368C304.326 -32.6347 298.769 -38.451 292.753 -40.3239C286.737 -42.1968 280.278 -41.4066 273.997 -41.8175C267.717 -42.2363 260.845 -44.4016 257.817 -49.9966C256.751 -51.9644 256.284 -54.4695 257.366 -56.4293C258.23 -57.994 259.888 -58.9107 261.499 -59.6615C266.285 -61.8821 271.406 -63.3441 276.628 -63.9921C267.242 -62.8304 259.763 -64.5927 250.665 -59.9064C245.622 -57.3065 234.758 -49.0088 242.564 -42.8369C245.07 -40.8613 248.51 -40.8692 251.591 -40.1184C254.673 -39.3677 258.012 -36.9416 257.553 -33.7569C257.28 -31.8682 255.732 -30.4536 254.175 -29.3789C245.825 -23.6179 235.147 -23.1042 225.076 -22.4009C199.962 -20.6465 174.412 -16.3396 152.403 -3.92473C143.461 1.1171 135.048 7.64462 129.624 16.456C126.9 20.8814 124.947 26.1524 125.958 31.2733C127.818 40.6615 138.185 45.1739 147.205 47.9714C165.361 53.6138 183.845 58.5134 202.741 60.4574C217.131 61.9431 232.781 62.1012 244.151 71.1733C248.408 74.5714 251.934 79.5263 251.903 85.0265C251.872 90.2185 248.634 94.96 244.502 98.0262C240.377 101.092 235.427 102.76 230.548 104.332C219.551 107.873 208.469 111.144 197.316 114.139C187.884 116.676 176.677 120.786 174.864 130.514C173.852 135.982 176.482 141.672 180.545 145.418C184.6 149.156 189.892 151.218 195.199 152.617C202.352 154.498 209.729 155.312 217.029 156.505C220.726 157.114 224.508 157.864 227.645 159.919C230.789 161.982 233.17 165.664 232.672 169.426C232.166 173.187 227.964 176.301 224.539 174.768C228.532 177.471 234.517 174.12 235.567 169.363C236.626 164.605 233.832 159.658 229.956 156.79C226.08 153.921 221.286 152.688 216.632 151.519C209.737 149.788 202.85 148.049 195.954 146.319C192.141 145.363 188.218 144.351 185.067 141.98C181.907 139.609 179.681 135.5 180.654 131.636C181.557 128.064 184.818 125.677 188.001 123.907C194.958 120.027 202.663 117.53 210.554 116.589C208.414 120.643 209.792 125.906 212.803 129.344C215.815 132.782 220.127 134.718 224.423 136.196C230.968 138.448 237.801 139.87 244.688 140.4C249.708 140.787 255.389 140.984 258.751 144.786C262.588 149.132 261.359 156.126 258.316 161.073C255.273 166.02 250.759 169.932 247.895 174.989C253.802 171.038 259.382 166.115 262.331 159.579C265.273 153.044 265.024 144.643 260.222 139.364C252.557 130.932 238.906 134.283 228.065 131.035C223.59 129.692 218.936 126.104 219.341 121.386C219.738 116.732 224.648 114.076 228.968 112.456C255.911 102.341 285.274 99.2353 311.167 86.5991C317.214 83.6435 323.946 78.2856 322.498 71.6237C321.813 68.4627 319.362 66.0208 316.832 64.0531C302.24 52.6576 282.683 50.8874 264.3 49.9391C245.918 48.9908 226.508 48.1294 211.021 38.0142C204.398 33.6915 198.305 26.026 200.608 18.3842C202.048 13.5952 206.398 10.3631 210.71 7.93701C232.143 -4.12229 257.911 -4.53322 281.297 -11.7799ZM274.425 64.2269C274.69 63.5631 275.305 63.1522 275.974 62.8993C276.231 62.8045 276.496 62.7254 276.76 62.6701C283.819 61.1054 297.041 66.1157 296.644 74.9033C296.38 80.9883 290.099 84.7183 284.519 86.9626C270.807 92.4786 280.286 82.2211 286.278 77.5902C287.049 76.9975 287.866 76.3337 288.099 75.3774C288.675 73.0225 285.624 71.679 283.329 71.0073C280.947 70.3198 278.659 69.2846 276.558 67.9649C275.243 67.1351 273.842 65.681 274.425 64.2269ZM208.741 48.9671C202.328 50.9111 191.876 50.4054 181.899 47.7738C170.42 44.7471 159.555 38.8992 156.162 30.7359C150.504 17.0803 162.202 1.65448 175.774 0.785202C177.447 0.674566 179.175 0.579731 180.763 1.15662C182.343 1.74141 183.744 3.17968 183.744 4.87873C183.744 5.96928 183.191 6.98081 182.561 7.86589C178.023 14.2116 166.552 18.566 169.26 28.1122C172.607 39.9424 198.935 46.5805 208.741 48.9671Z" fill="#FFDEBF"/>
<path opacity="0.25" d="M276.208 43.1193C289.088 44.6128 301.867 46.9915 314.428 50.2236C320.965 51.9069 327.938 54.1591 331.899 59.6988C335.378 64.5589 335.791 71.2128 333.985 76.9422C332.179 82.6637 328.397 87.5553 324.117 91.6963C334.771 86.8046 346.515 79.2023 347.208 67.3485C347.729 58.3554 341.145 50.192 333.207 46.1775C325.269 42.163 316.163 41.436 307.314 40.7801C290.956 39.571 274.604 38.354 258.246 37.1449C256.245 36.9948 254.852 36.5759 252.922 36.979C258.868 41.9497 268.534 42.2342 276.208 43.1193Z" fill="#FFDEBF"/>
<path opacity="0.25" d="M300.497 119.576C295.002 116.376 286.854 119.395 281.538 121.813C275.725 124.452 268.588 130.126 269.367 137.318C270.176 144.857 278.589 147.465 284.371 150.136C288.838 152.198 292.294 157.446 289.57 162.282C286.978 166.881 281.57 167.648 276.955 168.92C275.538 169.307 275.787 171.623 277.305 171.559C284.457 171.243 293.033 168.572 297.983 162.969C300.294 160.354 301.578 156.481 300.24 153.241C299.267 150.878 297.127 149.258 295.08 147.757C291.352 145.015 279.694 141.688 277.453 138.464C269.18 126.547 293.36 119.663 301.073 119.948C300.894 119.821 300.699 119.695 300.497 119.576Z" fill="#FFDEBF"/>
</g>
</g>
<defs>
<clipPath id="clip0_118_96">
<rect width="500" height="500" fill="white"/>
</clipPath>
<clipPath id="clip1_118_96">
<rect width="294" height="460" fill="white" transform="translate(103 -64)"/>
</clipPath>
</defs>
</svg>
