<svg xmlns="http://www.w3.org/2000/svg" version="1.1" xmlns:xlink="http://www.w3.org/1999/xlink" xmlns:svgjs="http://svgjs.com/svgjs" width="1440" height="560" preserveAspectRatio="none" viewBox="0 0 1440 560"><g mask="url(&quot;#SvgjsMask1003&quot;)" fill="none"><rect width="1440" height="560" x="0" y="0" fill="url(#SvgjsLinearGradient1004)"></rect><path d="M137.07 111.4L202.03 148.9L202.03 223.9L137.07 261.4L72.12 223.9L72.12 148.9zM72.12 223.9L137.07 261.4L137.07 336.4L72.12 373.9L7.17 336.4L7.17 261.4zM137.07 336.4L202.03 373.9L202.03 448.9L137.07 486.4L72.12 448.9L72.12 373.9zM72.12 448.9L137.07 486.4L137.07 561.4L72.12 598.9L7.17 561.4L7.17 486.4zM202.03 448.9L266.98 486.4L266.98 561.4L202.03 598.9L137.07 561.4L137.07 486.4zM331.94 448.9L396.89 486.4L396.89 561.4L331.94 598.9L266.98 561.4L266.98 486.4zM396.89 561.4L461.84 598.9L461.84 673.9L396.89 711.4L331.94 673.9L331.94 598.9zM526.8 336.4L591.75 373.9L591.75 448.9L526.8 486.4L461.84 448.9L461.84 373.9zM526.8 561.4L591.75 598.9L591.75 673.9L526.8 711.4L461.84 673.9L461.84 598.9zM656.7 561.4L721.66 598.9L721.66 673.9L656.7 711.4L591.75 673.9L591.75 598.9zM721.66 -1.1L786.61 36.4L786.61 111.4L721.66 148.9L656.7 111.4L656.7 36.4zM721.66 223.9L786.61 261.4L786.61 336.4L721.66 373.9L656.7 336.4L656.7 261.4zM786.61 336.4L851.57 373.9L851.57 448.9L786.61 486.4L721.66 448.9L721.66 373.9zM721.66 448.9L786.61 486.4L786.61 561.4L721.66 598.9L656.7 561.4L656.7 486.4zM851.56 448.9L916.52 486.4L916.52 561.4L851.56 598.9L786.61 561.4L786.61 486.4zM916.52 561.4L981.47 598.9L981.47 673.9L916.52 711.4L851.56 673.9L851.56 598.9zM981.47 -1.1L1046.43 36.4L1046.43 111.4L981.47 148.9L916.52 111.4L916.52 36.4zM981.47 448.9L1046.43 486.4L1046.43 561.4L981.47 598.9L916.52 561.4L916.52 486.4zM1111.38 -1.1L1176.33 36.4L1176.33 111.4L1111.38 148.9L1046.43 111.4L1046.43 36.4zM1241.29 -1.1L1306.24 36.4L1306.24 111.4L1241.29 148.9L1176.33 111.4L1176.33 36.4zM1241.29 223.9L1306.24 261.4L1306.24 336.4L1241.29 373.9L1176.33 336.4L1176.33 261.4zM1436.15 111.4L1501.1 148.9L1501.1 223.9L1436.15 261.4L1371.2 223.9L1371.2 148.9zM1436.15 561.4L1501.1 598.9L1501.1 673.9L1436.15 711.4L1371.2 673.9L1371.2 598.9zM1501.1 -1.1L1566.06 36.4L1566.06 111.4L1501.1 148.9L1436.15 111.4L1436.15 36.4zM1566.06 111.4L1631.01 148.9L1631.01 223.9L1566.06 261.4L1501.1 223.9L1501.1 148.9z" stroke="#03305d" stroke-width="2"></path><path d="M129.57 111.4 a7.5 7.5 0 1 0 15 0 a7.5 7.5 0 1 0 -15 0zM194.53 148.9 a7.5 7.5 0 1 0 15 0 a7.5 7.5 0 1 0 -15 0zM194.53 223.9 a7.5 7.5 0 1 0 15 0 a7.5 7.5 0 1 0 -15 0zM129.57 261.4 a7.5 7.5 0 1 0 15 0 a7.5 7.5 0 1 0 -15 0zM64.62 223.9 a7.5 7.5 0 1 0 15 0 a7.5 7.5 0 1 0 -15 0zM64.62 148.9 a7.5 7.5 0 1 0 15 0 a7.5 7.5 0 1 0 -15 0zM129.57 336.4 a7.5 7.5 0 1 0 15 0 a7.5 7.5 0 1 0 -15 0zM64.62 373.9 a7.5 7.5 0 1 0 15 0 a7.5 7.5 0 1 0 -15 0zM-0.33 336.4 a7.5 7.5 0 1 0 15 0 a7.5 7.5 0 1 0 -15 0zM-0.33 261.4 a7.5 7.5 0 1 0 15 0 a7.5 7.5 0 1 0 -15 0zM194.53 373.9 a7.5 7.5 0 1 0 15 0 a7.5 7.5 0 1 0 -15 0zM194.53 448.9 a7.5 7.5 0 1 0 15 0 a7.5 7.5 0 1 0 -15 0zM129.57 486.4 a7.5 7.5 0 1 0 15 0 a7.5 7.5 0 1 0 -15 0zM64.62 448.9 a7.5 7.5 0 1 0 15 0 a7.5 7.5 0 1 0 -15 0zM129.57 561.4 a7.5 7.5 0 1 0 15 0 a7.5 7.5 0 1 0 -15 0zM64.62 598.9 a7.5 7.5 0 1 0 15 0 a7.5 7.5 0 1 0 -15 0zM-0.33 561.4 a7.5 7.5 0 1 0 15 0 a7.5 7.5 0 1 0 -15 0zM-0.33 486.4 a7.5 7.5 0 1 0 15 0 a7.5 7.5 0 1 0 -15 0zM259.48 486.4 a7.5 7.5 0 1 0 15 0 a7.5 7.5 0 1 0 -15 0zM259.48 561.4 a7.5 7.5 0 1 0 15 0 a7.5 7.5 0 1 0 -15 0zM194.53 598.9 a7.5 7.5 0 1 0 15 0 a7.5 7.5 0 1 0 -15 0zM324.44 448.9 a7.5 7.5 0 1 0 15 0 a7.5 7.5 0 1 0 -15 0zM389.39 486.4 a7.5 7.5 0 1 0 15 0 a7.5 7.5 0 1 0 -15 0zM389.39 561.4 a7.5 7.5 0 1 0 15 0 a7.5 7.5 0 1 0 -15 0zM324.44 598.9 a7.5 7.5 0 1 0 15 0 a7.5 7.5 0 1 0 -15 0zM454.34 598.9 a7.5 7.5 0 1 0 15 0 a7.5 7.5 0 1 0 -15 0zM454.34 673.9 a7.5 7.5 0 1 0 15 0 a7.5 7.5 0 1 0 -15 0zM389.39 711.4 a7.5 7.5 0 1 0 15 0 a7.5 7.5 0 1 0 -15 0zM324.44 673.9 a7.5 7.5 0 1 0 15 0 a7.5 7.5 0 1 0 -15 0zM519.3 336.4 a7.5 7.5 0 1 0 15 0 a7.5 7.5 0 1 0 -15 0zM584.25 373.9 a7.5 7.5 0 1 0 15 0 a7.5 7.5 0 1 0 -15 0zM584.25 448.9 a7.5 7.5 0 1 0 15 0 a7.5 7.5 0 1 0 -15 0zM519.3 486.4 a7.5 7.5 0 1 0 15 0 a7.5 7.5 0 1 0 -15 0zM454.34 448.9 a7.5 7.5 0 1 0 15 0 a7.5 7.5 0 1 0 -15 0zM454.34 373.9 a7.5 7.5 0 1 0 15 0 a7.5 7.5 0 1 0 -15 0zM519.3 561.4 a7.5 7.5 0 1 0 15 0 a7.5 7.5 0 1 0 -15 0zM584.25 598.9 a7.5 7.5 0 1 0 15 0 a7.5 7.5 0 1 0 -15 0zM584.25 673.9 a7.5 7.5 0 1 0 15 0 a7.5 7.5 0 1 0 -15 0zM519.3 711.4 a7.5 7.5 0 1 0 15 0 a7.5 7.5 0 1 0 -15 0zM649.2 561.4 a7.5 7.5 0 1 0 15 0 a7.5 7.5 0 1 0 -15 0zM714.16 598.9 a7.5 7.5 0 1 0 15 0 a7.5 7.5 0 1 0 -15 0zM714.16 673.9 a7.5 7.5 0 1 0 15 0 a7.5 7.5 0 1 0 -15 0zM649.2 711.4 a7.5 7.5 0 1 0 15 0 a7.5 7.5 0 1 0 -15 0zM714.16 -1.1 a7.5 7.5 0 1 0 15 0 a7.5 7.5 0 1 0 -15 0zM779.11 36.4 a7.5 7.5 0 1 0 15 0 a7.5 7.5 0 1 0 -15 0zM779.11 111.4 a7.5 7.5 0 1 0 15 0 a7.5 7.5 0 1 0 -15 0zM714.16 148.9 a7.5 7.5 0 1 0 15 0 a7.5 7.5 0 1 0 -15 0zM649.2 111.4 a7.5 7.5 0 1 0 15 0 a7.5 7.5 0 1 0 -15 0zM649.2 36.4 a7.5 7.5 0 1 0 15 0 a7.5 7.5 0 1 0 -15 0zM714.16 223.9 a7.5 7.5 0 1 0 15 0 a7.5 7.5 0 1 0 -15 0zM779.11 261.4 a7.5 7.5 0 1 0 15 0 a7.5 7.5 0 1 0 -15 0zM779.11 336.4 a7.5 7.5 0 1 0 15 0 a7.5 7.5 0 1 0 -15 0zM714.16 373.9 a7.5 7.5 0 1 0 15 0 a7.5 7.5 0 1 0 -15 0zM649.2 336.4 a7.5 7.5 0 1 0 15 0 a7.5 7.5 0 1 0 -15 0zM649.2 261.4 a7.5 7.5 0 1 0 15 0 a7.5 7.5 0 1 0 -15 0zM844.07 373.9 a7.5 7.5 0 1 0 15 0 a7.5 7.5 0 1 0 -15 0zM844.07 448.9 a7.5 7.5 0 1 0 15 0 a7.5 7.5 0 1 0 -15 0zM779.11 486.4 a7.5 7.5 0 1 0 15 0 a7.5 7.5 0 1 0 -15 0zM714.16 448.9 a7.5 7.5 0 1 0 15 0 a7.5 7.5 0 1 0 -15 0zM779.11 561.4 a7.5 7.5 0 1 0 15 0 a7.5 7.5 0 1 0 -15 0zM649.2 486.4 a7.5 7.5 0 1 0 15 0 a7.5 7.5 0 1 0 -15 0zM844.06 448.9 a7.5 7.5 0 1 0 15 0 a7.5 7.5 0 1 0 -15 0zM909.02 486.4 a7.5 7.5 0 1 0 15 0 a7.5 7.5 0 1 0 -15 0zM909.02 561.4 a7.5 7.5 0 1 0 15 0 a7.5 7.5 0 1 0 -15 0zM844.06 598.9 a7.5 7.5 0 1 0 15 0 a7.5 7.5 0 1 0 -15 0zM973.97 598.9 a7.5 7.5 0 1 0 15 0 a7.5 7.5 0 1 0 -15 0zM973.97 673.9 a7.5 7.5 0 1 0 15 0 a7.5 7.5 0 1 0 -15 0zM909.02 711.4 a7.5 7.5 0 1 0 15 0 a7.5 7.5 0 1 0 -15 0zM844.06 673.9 a7.5 7.5 0 1 0 15 0 a7.5 7.5 0 1 0 -15 0zM973.97 -1.1 a7.5 7.5 0 1 0 15 0 a7.5 7.5 0 1 0 -15 0zM1038.93 36.4 a7.5 7.5 0 1 0 15 0 a7.5 7.5 0 1 0 -15 0zM1038.93 111.4 a7.5 7.5 0 1 0 15 0 a7.5 7.5 0 1 0 -15 0zM973.97 148.9 a7.5 7.5 0 1 0 15 0 a7.5 7.5 0 1 0 -15 0zM909.02 111.4 a7.5 7.5 0 1 0 15 0 a7.5 7.5 0 1 0 -15 0zM909.02 36.4 a7.5 7.5 0 1 0 15 0 a7.5 7.5 0 1 0 -15 0zM973.97 448.9 a7.5 7.5 0 1 0 15 0 a7.5 7.5 0 1 0 -15 0zM1038.93 486.4 a7.5 7.5 0 1 0 15 0 a7.5 7.5 0 1 0 -15 0zM1038.93 561.4 a7.5 7.5 0 1 0 15 0 a7.5 7.5 0 1 0 -15 0zM1103.88 -1.1 a7.5 7.5 0 1 0 15 0 a7.5 7.5 0 1 0 -15 0zM1168.83 36.4 a7.5 7.5 0 1 0 15 0 a7.5 7.5 0 1 0 -15 0zM1168.83 111.4 a7.5 7.5 0 1 0 15 0 a7.5 7.5 0 1 0 -15 0zM1103.88 148.9 a7.5 7.5 0 1 0 15 0 a7.5 7.5 0 1 0 -15 0zM1233.79 -1.1 a7.5 7.5 0 1 0 15 0 a7.5 7.5 0 1 0 -15 0zM1298.74 36.4 a7.5 7.5 0 1 0 15 0 a7.5 7.5 0 1 0 -15 0zM1298.74 111.4 a7.5 7.5 0 1 0 15 0 a7.5 7.5 0 1 0 -15 0zM1233.79 148.9 a7.5 7.5 0 1 0 15 0 a7.5 7.5 0 1 0 -15 0zM1233.79 223.9 a7.5 7.5 0 1 0 15 0 a7.5 7.5 0 1 0 -15 0zM1298.74 261.4 a7.5 7.5 0 1 0 15 0 a7.5 7.5 0 1 0 -15 0zM1298.74 336.4 a7.5 7.5 0 1 0 15 0 a7.5 7.5 0 1 0 -15 0zM1233.79 373.9 a7.5 7.5 0 1 0 15 0 a7.5 7.5 0 1 0 -15 0zM1168.83 336.4 a7.5 7.5 0 1 0 15 0 a7.5 7.5 0 1 0 -15 0zM1168.83 261.4 a7.5 7.5 0 1 0 15 0 a7.5 7.5 0 1 0 -15 0zM1428.65 111.4 a7.5 7.5 0 1 0 15 0 a7.5 7.5 0 1 0 -15 0zM1493.6 148.9 a7.5 7.5 0 1 0 15 0 a7.5 7.5 0 1 0 -15 0zM1493.6 223.9 a7.5 7.5 0 1 0 15 0 a7.5 7.5 0 1 0 -15 0zM1428.65 261.4 a7.5 7.5 0 1 0 15 0 a7.5 7.5 0 1 0 -15 0zM1363.7 223.9 a7.5 7.5 0 1 0 15 0 a7.5 7.5 0 1 0 -15 0zM1363.7 148.9 a7.5 7.5 0 1 0 15 0 a7.5 7.5 0 1 0 -15 0zM1428.65 561.4 a7.5 7.5 0 1 0 15 0 a7.5 7.5 0 1 0 -15 0zM1493.6 598.9 a7.5 7.5 0 1 0 15 0 a7.5 7.5 0 1 0 -15 0zM1493.6 673.9 a7.5 7.5 0 1 0 15 0 a7.5 7.5 0 1 0 -15 0zM1428.65 711.4 a7.5 7.5 0 1 0 15 0 a7.5 7.5 0 1 0 -15 0zM1363.7 673.9 a7.5 7.5 0 1 0 15 0 a7.5 7.5 0 1 0 -15 0zM1363.7 598.9 a7.5 7.5 0 1 0 15 0 a7.5 7.5 0 1 0 -15 0zM1493.6 -1.1 a7.5 7.5 0 1 0 15 0 a7.5 7.5 0 1 0 -15 0zM1558.56 36.4 a7.5 7.5 0 1 0 15 0 a7.5 7.5 0 1 0 -15 0zM1558.56 111.4 a7.5 7.5 0 1 0 15 0 a7.5 7.5 0 1 0 -15 0zM1428.65 36.4 a7.5 7.5 0 1 0 15 0 a7.5 7.5 0 1 0 -15 0zM1623.51 148.9 a7.5 7.5 0 1 0 15 0 a7.5 7.5 0 1 0 -15 0zM1623.51 223.9 a7.5 7.5 0 1 0 15 0 a7.5 7.5 0 1 0 -15 0zM1558.56 261.4 a7.5 7.5 0 1 0 15 0 a7.5 7.5 0 1 0 -15 0z" fill="#03305d"></path><path d="M63.96 35.09L107.27 60.09L107.27 110.09L63.96 135.09L20.66 110.09L20.66 60.09zM20.66 110.09L63.96 135.09L63.96 185.09L20.66 210.09L-22.64 185.09L-22.64 135.09zM193.87 110.09L237.17 135.09L237.17 185.09L193.87 210.09L150.57 185.09L150.57 135.09zM237.17 185.09L280.48 210.09L280.48 260.09L237.17 285.09L193.87 260.09L193.87 210.09zM237.17 335.09L280.48 360.09L280.48 410.09L237.17 435.09L193.87 410.09L193.87 360.09zM193.87 410.09L237.17 435.09L237.17 485.09L193.87 510.09L150.57 485.09L150.57 435.09zM280.48 110.09L323.78 135.09L323.78 185.09L280.48 210.09L237.17 185.09L237.17 135.09zM280.48 410.09L323.78 435.09L323.78 485.09L280.48 510.09L237.17 485.09L237.17 435.09zM410.38 35.09L453.69 60.09L453.69 110.09L410.38 135.09L367.08 110.09L367.08 60.09zM367.08 110.09L410.38 135.09L410.38 185.09L367.08 210.09L323.78 185.09L323.78 135.09zM496.99 35.09L540.29 60.09L540.29 110.09L496.99 135.09L453.69 110.09L453.69 60.09zM453.69 110.09L496.99 135.09L496.99 185.09L453.69 210.09L410.38 185.09L410.38 135.09zM540.29 -39.91L583.59 -14.91L583.59 35.09L540.29 60.09L496.99 35.09L496.99 -14.91zM583.59 35.09L626.89 60.09L626.89 110.09L583.59 135.09L540.29 110.09L540.29 60.09zM583.59 335.09L626.89 360.09L626.89 410.09L583.59 435.09L540.29 410.09L540.29 360.09zM540.29 410.09L583.59 435.09L583.59 485.09L540.29 510.09L496.99 485.09L496.99 435.09zM670.2 35.09L713.5 60.09L713.5 110.09L670.2 135.09L626.89 110.09L626.89 60.09zM670.2 185.09L713.5 210.09L713.5 260.09L670.2 285.09L626.89 260.09L626.89 210.09zM713.5 -39.91L756.8 -14.91L756.8 35.09L713.5 60.09L670.2 35.09L670.2 -14.91zM756.8 35.09L800.11 60.09L800.11 110.09L756.8 135.09L713.5 110.09L713.5 60.09zM713.5 110.09L756.8 135.09L756.8 185.09L713.5 210.09L670.2 185.09L670.2 135.09zM800.11 110.09L843.41 135.09L843.41 185.09L800.11 210.09L756.8 185.09L756.8 135.09zM843.41 485.09L886.71 510.09L886.71 560.09L843.41 585.09L800.11 560.09L800.11 510.09zM930.01 335.09L973.32 360.09L973.32 410.09L930.01 435.09L886.71 410.09L886.71 360.09zM886.71 410.09L930.01 435.09L930.01 485.09L886.71 510.09L843.41 485.09L843.41 435.09zM1016.62 35.09L1059.92 60.09L1059.92 110.09L1016.62 135.09L973.32 110.09L973.32 60.09zM973.32 110.09L1016.62 135.09L1016.62 185.09L973.32 210.09L930.01 185.09L930.01 135.09zM1016.62 335.09L1059.92 360.09L1059.92 410.09L1016.62 435.09L973.32 410.09L973.32 360.09zM973.32 410.09L1016.62 435.09L1016.62 485.09L973.32 510.09L930.01 485.09L930.01 435.09zM1103.22 35.09L1146.53 60.09L1146.53 110.09L1103.22 135.09L1059.92 110.09L1059.92 60.09zM1103.22 185.09L1146.53 210.09L1146.53 260.09L1103.22 285.09L1059.92 260.09L1059.92 210.09zM1103.22 335.09L1146.53 360.09L1146.53 410.09L1103.22 435.09L1059.92 410.09L1059.92 360.09zM1103.22 485.09L1146.53 510.09L1146.53 560.09L1103.22 585.09L1059.92 560.09L1059.92 510.09zM1189.83 35.09L1233.13 60.09L1233.13 110.09L1189.83 135.09L1146.53 110.09L1146.53 60.09zM1146.53 260.09L1189.83 285.09L1189.83 335.09L1146.53 360.09L1103.22 335.09L1103.22 285.09zM1189.83 335.09L1233.13 360.09L1233.13 410.09L1189.83 435.09L1146.53 410.09L1146.53 360.09zM1233.13 260.09L1276.43 285.09L1276.43 335.09L1233.13 360.09L1189.83 335.09L1189.83 285.09zM1319.74 110.09L1363.04 135.09L1363.04 185.09L1319.74 210.09L1276.43 185.09L1276.43 135.09zM1363.04 485.09L1406.34 510.09L1406.34 560.09L1363.04 585.09L1319.74 560.09L1319.74 510.09zM1406.34 110.09L1449.64 135.09L1449.64 185.09L1406.34 210.09L1363.04 185.09L1363.04 135.09z" stroke="rgba(6, 80, 156, 0.93)" stroke-width="2"></path></g><defs><mask id="SvgjsMask1003"><rect width="1440" height="560" fill="#ffffff"></rect></mask><linearGradient x1="15.28%" y1="-39.29%" x2="84.72%" y2="139.29%" gradientUnits="userSpaceOnUse" id="SvgjsLinearGradient1004"><stop stop-color="#0e2a47" offset="0"></stop><stop stop-color="#00459e" offset="1"></stop></linearGradient></defs></svg>