<svg width="500" height="500" viewBox="0 0 500 500" fill="none" xmlns="http://www.w3.org/2000/svg">
<rect width="500" height="500" fill="white"/>
<g clip-path="url(#clip0_118_96)">
<path opacity="0.6" d="M78.9305 202.432C77.2414 203.332 53.887 207.749 66.1027 235.529C78.3185 263.31 206.009 332.466 235.336 339.559C264.664 346.652 443.065 425.269 441.841 408.715C440.617 392.16 388.682 318.871 372.806 303.501C356.918 288.142 149.801 164.609 78.9305 202.432Z" fill="#BFC4FF"/>
<path d="M404.717 322.01L419.858 350.785C419.858 350.785 425.806 355.072 433.383 350.785L423.652 322.01H404.717Z" fill="#474646"/>
<path d="M404.717 322.01L419.858 350.785C419.858 350.785 425.806 355.001 433.383 350.785L423.652 322.01H404.717Z" fill="#474646"/>
<path opacity="0.2" d="M404.717 322.01L419.858 350.785C419.858 350.785 425.745 354.681 433.383 350.785L423.652 322.01H404.717Z" fill="#000854"/>
<path d="M441.07 350.134C439.099 348.511 438.377 347.931 438.083 347.706C438.916 348.57 443.408 353.26 444.546 356.907C444.546 356.907 439.944 354.764 436.284 351.057C436.7 351.637 437.839 353.319 439.577 357.594C439.577 357.594 436.761 355.972 434.436 353.307C433.297 351.981 431.988 351.922 430.605 352.206C429.405 352.383 428.267 352.905 427.312 353.011C427.128 353.07 427.018 353.07 426.835 353.07C425.819 353.07 421.694 354.515 419.894 350.868C419.894 350.809 419.833 350.809 419.833 350.749C419.833 350.749 419.833 350.749 419.772 350.749L416.638 344.651C416.638 344.651 427.312 343.668 429.16 338.529C429.784 337.534 430.715 338.813 430.715 338.813C430.715 338.813 441.902 338.292 444.118 339.677C446.333 341.181 452.919 350.844 452.919 350.844C452.919 350.844 448.732 349.743 446.333 347.659C444.424 345.977 443.64 345.397 443.396 345.29C443.812 345.811 447.41 350.157 448.842 354.207C448.855 354.243 444.179 352.68 441.07 350.134Z" fill="#BD7D00"/>
<path d="M441.07 350.134C439.099 348.511 438.377 347.931 438.083 347.706C438.916 348.57 443.408 353.26 444.546 356.907C444.546 356.907 439.944 354.764 436.284 351.057C436.7 351.637 437.839 353.319 439.577 357.594C439.577 357.594 436.761 355.972 434.436 353.307C433.297 351.981 431.988 351.922 430.605 352.206C429.405 352.383 428.267 352.905 427.312 353.011C427.128 353.07 427.018 353.07 426.835 353.07C425.819 353.07 421.694 354.515 419.894 350.868C419.894 350.809 419.833 350.809 419.833 350.749C419.833 350.749 419.833 350.749 419.772 350.749L416.638 344.651C416.638 344.651 427.312 343.668 429.16 338.529C429.784 337.534 430.715 338.813 430.715 338.813C430.715 338.813 441.902 338.292 444.118 339.677C446.333 341.181 452.919 350.844 452.919 350.844C452.919 350.844 448.732 349.743 446.333 347.659C444.424 345.977 443.64 345.397 443.396 345.29C443.812 345.811 447.41 350.157 448.842 354.207C448.855 354.243 444.179 352.68 441.07 350.134Z" fill="#BD7D00"/>
<path opacity="0.2" d="M441.07 350.134C439.099 348.511 438.377 347.931 438.083 347.706C438.916 348.57 443.408 353.26 444.546 356.907C444.546 356.907 439.944 354.764 436.284 351.057C436.7 351.637 437.839 353.319 439.577 357.594C439.577 357.594 436.761 355.972 434.436 353.307C433.297 351.981 431.988 351.922 430.605 352.206C429.405 352.383 428.267 352.905 427.312 353.011C427.128 353.07 427.018 353.07 426.835 353.07C425.819 353.07 421.694 354.515 419.894 350.868C419.894 350.809 419.833 350.809 419.833 350.749C419.833 350.749 419.833 350.749 419.772 350.749L416.638 344.651C416.638 344.651 427.312 343.668 429.16 338.529C429.784 337.534 430.715 338.813 430.715 338.813C430.715 338.813 441.902 338.292 444.118 339.677C446.333 341.181 452.919 350.844 452.919 350.844C452.919 350.844 448.732 349.743 446.333 347.659C444.424 345.977 443.64 345.397 443.396 345.29C443.812 345.811 447.41 350.157 448.842 354.207C448.855 354.243 444.179 352.68 441.07 350.134Z" fill="#000854"/>
<path d="M174.686 363.1V363.159C174.686 363.337 174.686 364.083 174.27 364.545C173.315 365.705 170.145 365.35 159.973 352.383C157.819 349.66 154.587 346.415 150.524 342.946C126.288 321.879 73.6304 289.693 59.1013 279.036C42.1486 266.543 11.2175 218.844 31.8545 186.422C48.134 160.773 65.7232 150.127 90.4363 152.389C96.9603 153.028 104.023 154.532 111.673 156.9L96.6666 181.093C95.8832 181.093 90.0201 177.327 83.1411 176.179C79.4935 175.539 75.5399 175.658 71.9535 177.505C63.875 181.733 48.3176 197.766 49.456 221.615V221.9C49.8109 228.436 51.3654 235.506 54.6581 243.025C66.8004 270.984 135.138 315.153 162.898 343.692C170.561 351.578 175.163 358.233 174.686 363.1Z" fill="#BD7D00"/>
<path opacity="0.2" d="M174.686 363.1V363.159L174.27 364.545C173.315 365.705 170.145 365.35 159.973 352.383C157.819 349.66 154.587 346.415 150.524 342.946C126.288 321.879 73.6304 289.693 59.1013 279.036C42.1486 266.543 11.2175 218.844 31.8545 186.422C48.134 160.773 65.7232 150.127 90.4363 152.389C96.9603 153.028 104.023 154.532 111.673 156.9L96.6666 181.093C95.8832 181.093 90.0201 177.327 83.1411 176.179C79.4935 175.539 75.5399 175.658 71.9535 177.505C63.875 181.733 48.3176 197.766 49.456 221.615V221.9C48.5624 233.883 46.6407 266.01 102.774 301.5C129.042 318.114 146.399 332.584 157.464 343.348C170.255 355.687 174.686 363.1 174.686 363.1Z" fill="#000854"/>
<path opacity="0.2" d="M419.836 350.761C419.836 350.824 419.9 350.824 419.9 350.888C419.836 350.824 419.772 350.761 419.772 350.761C419.836 350.761 419.836 350.761 419.836 350.761Z" fill="#000854"/>
<path d="M397.36 218.596C395.818 218.252 394.435 182.834 413.37 187.547C432.294 192.26 423.444 232.19 423.444 232.19L411.436 242.196L397.36 218.596Z" fill="#BD7D00"/>
<path d="M197.061 320.032C197 319.973 196.877 319.913 196.767 319.748C195.751 318.646 194.49 317.379 192.875 316.1V316.041C192.397 315.639 191.859 315.283 191.381 314.94C191.32 314.881 191.259 314.822 191.198 314.762C181.748 307.645 166.191 297.627 155.236 290.676C152.298 288.829 149.912 286.39 148.173 283.619C147.635 282.861 147.157 281.996 146.803 281.132C146.558 280.729 146.386 280.267 146.203 279.806C144.832 276.158 144.403 272.108 145.126 268.118C145.126 268.118 147.88 264.411 151.466 264.411C154.037 264.411 157.035 266.318 159.728 272.866C162.36 279.06 169.006 284.152 177.024 288.261C177.746 288.663 178.517 289.018 179.3 289.362C179.839 289.646 180.377 289.883 180.916 290.12C183.193 291.28 185.58 292.263 187.979 293.187C188.162 293.246 188.272 293.364 188.456 293.364C194.319 295.685 200.121 297.592 204.907 299.096C205.029 299.096 205.201 299.155 205.323 299.214L207.539 299.972L208.077 300.15L211.309 301.192C211.553 301.251 211.725 301.31 211.847 301.369L214.185 302.068C214.185 302.068 217.833 303.572 221.97 305.538C226.56 310.937 197.906 320.956 197.061 320.032Z" fill="#474646"/>
<path opacity="0.2" d="M197.061 320.032C197 319.973 196.877 319.913 196.767 319.748C195.751 318.646 194.49 317.379 192.875 316.1V316.041C192.397 315.639 191.859 315.283 191.381 314.94C191.32 314.881 191.259 314.822 191.198 314.762C181.748 307.645 166.191 297.627 155.236 290.676C152.298 288.829 149.912 286.39 148.173 283.619C147.635 282.861 147.157 281.996 146.803 281.132C146.558 280.729 146.386 280.267 146.203 279.806C144.832 276.158 144.403 272.108 145.126 268.118C145.126 268.118 147.88 264.411 151.466 264.411C154.037 264.411 157.035 266.318 159.728 272.866C162.36 279.06 169.006 284.152 177.024 288.261C177.746 288.663 178.517 289.018 179.3 289.362C179.839 289.646 180.377 289.883 180.916 290.12C183.193 291.28 185.58 292.263 187.979 293.187C188.162 293.246 188.272 293.364 188.456 293.364C194.319 295.685 200.121 297.592 204.907 299.096C205.029 299.096 205.201 299.155 205.323 299.214L207.539 299.972L208.077 300.15L211.309 301.192C211.553 301.251 211.725 301.31 211.847 301.369L214.185 302.068C214.185 302.068 217.833 303.572 221.97 305.538C226.56 310.937 197.906 320.956 197.061 320.032Z" fill="#000854"/>
<path d="M473.923 339.997C471.891 342.14 468.953 343.644 465.599 344.627C464.167 345.089 462.723 345.432 461.169 345.728C453.984 347.007 446.027 346.652 440.948 345.728C440.654 345.669 440.287 345.551 439.871 345.444C439.871 345.444 439.871 345.444 439.809 345.444C428.977 342.436 387.996 321.133 375.487 321.133C362.977 321.133 344.556 320.671 341.679 320.612H341.435C339.819 320.612 331.141 325.882 331.141 325.882C331.141 325.882 332.218 361.419 345.205 370.336C358.191 379.193 363.039 378.672 363.039 378.672L365.254 388.11L357.114 391.236C356.992 391.177 356.821 391.059 356.698 390.999C355.499 390.36 351.79 388.335 346.881 385.209C335.094 377.689 316.489 363.728 309.01 346.771C308.716 346.072 308.41 345.385 308.117 344.746C308.055 344.627 307.994 344.509 307.933 344.461C297.223 321.252 283.465 306.26 282.265 304.981C282.204 304.922 282.204 304.922 282.204 304.922C282.204 304.922 281.666 304.638 280.711 304.223C277.602 305.028 272.632 304.46 270.417 304.223C271.017 303.702 272.865 301.677 273.709 301.618C270.001 301.855 266.292 302.021 262.583 302.257C263.905 301.215 265.215 300.233 266.537 299.25C263.183 299.19 259.829 299.19 256.426 299.19C257.148 298.551 257.797 297.971 258.519 297.343H248.47C249.192 296.585 249.841 295.898 250.563 295.141C247.332 295.602 244.161 296.064 240.991 296.526C241.652 295.887 242.252 295.2 242.901 294.56C238.653 295.366 234.406 296.183 230.159 296.988C231.052 296.23 231.958 295.425 232.913 294.62C229.62 294.679 226.327 294.738 223.035 294.738C223.635 294.395 224.173 294.039 224.712 293.696H218.065C214.711 294.276 211.37 294.856 208.016 295.437C208.371 294.738 208.677 294.051 209.032 293.353C205.262 293.992 201.492 294.679 197.722 295.318C198.322 294.454 198.86 293.578 199.46 292.713C195.812 292.95 192.165 293.175 188.456 293.353C188.273 293.412 188.04 293.412 187.856 293.412C187.918 293.353 187.979 293.234 187.979 293.175C188.579 292.251 189.117 291.328 189.594 290.392C186.718 290.274 183.793 290.214 180.916 290.108C180.133 290.108 179.423 290.049 178.639 290.049C178.884 289.812 179.056 289.587 179.3 289.35C179.717 288.888 180.133 288.486 180.5 288.071C180.206 288.012 179.9 287.953 179.606 287.893C178.774 288.012 177.868 288.13 177.036 288.237C174.049 288.58 171.051 288.936 168.003 289.338C168.602 288.118 169.202 286.851 169.802 285.632C169.618 285.573 169.386 285.513 169.202 285.513C164.955 285.632 160.646 285.75 156.399 285.857C156.938 285.217 157.476 284.637 158.076 284.009C154.783 283.891 151.491 283.725 148.198 283.607C147.121 283.548 146.105 283.548 145.028 283.488C145.628 282.731 146.289 281.925 146.827 281.12C147.182 280.717 147.549 280.256 147.843 279.794H146.227C142.996 279.794 139.764 279.735 136.533 279.735C137.733 278.692 138.932 277.591 140.119 276.549C136.827 276.431 133.534 276.312 130.193 276.265C131.209 275.46 132.224 274.643 133.24 273.837C128.638 272.736 123.962 271.635 119.299 270.593C120.376 269.669 121.392 268.745 122.408 267.869C119.531 267.23 116.667 266.543 113.729 265.903C115.051 265.205 116.3 264.518 117.561 263.819C114.146 262.138 110.682 260.409 107.205 258.727C108.699 258.088 110.143 257.401 111.636 256.762C111.514 256.643 111.343 256.525 111.22 256.359C108.711 255.033 106.128 253.695 103.619 252.368C104.574 252.25 105.529 252.131 106.434 252.025C103.68 250.521 100.926 249.017 98.1722 247.513C99.1881 247.229 100.265 246.874 101.281 246.59C98.8331 245.548 96.3116 244.565 93.8024 243.582C94.9407 243.404 96.0791 243.179 97.2786 243.002C95.1243 241.438 92.9701 239.875 90.8158 238.312C91.8929 238.312 92.9701 238.371 94.0472 238.371C91.4155 235.589 88.7839 232.818 86.1522 230.035C87.7068 231.255 89.4449 231.835 91.2442 232.237C88.6125 230.497 85.9809 228.827 83.288 227.145C84.1204 227.027 84.9649 226.861 85.7361 226.684C83.643 222.859 81.5499 218.987 79.4568 215.162C80.534 215.683 81.6111 216.263 82.6271 216.784C80.9502 211.337 79.2732 205.842 77.5474 200.407C78.5633 200.229 79.518 200.063 80.534 199.886C80.5952 193.811 80.5952 187.677 80.6564 181.59C81.195 182.514 81.6723 183.438 82.1497 184.373C82.5047 181.65 82.8719 178.926 83.1656 176.214C83.8266 171.182 84.4876 166.196 85.0751 161.163C86.2135 163.011 87.3518 164.929 88.4901 166.776C89.1511 162.028 89.8121 157.22 90.4608 152.424C90.6444 151.039 90.8158 149.701 90.9994 148.315C91.7216 149.239 92.3703 150.162 93.0925 151.098C93.6922 147.167 94.2308 143.223 94.8306 139.292C95.7853 139.635 96.8013 139.931 97.7682 140.275C97.5846 138.427 97.3521 136.568 97.1685 134.78C99.2003 134.318 101.293 133.916 103.338 133.501C102.554 132.862 101.722 132.281 100.889 131.701C103.582 129.795 106.214 127.876 108.907 125.97C111.845 123.708 114.831 121.399 117.757 119.078C116.618 119.137 115.48 119.137 114.342 119.196C118.589 116.828 122.775 114.448 126.961 112.08C126.006 111.843 125.052 111.558 124.085 111.274C126.655 110.173 129.226 109.072 131.808 107.97C131.025 107.852 130.193 107.686 129.409 107.509C131.686 107.047 134.073 106.703 136.594 106.348C138.81 106.005 141.025 105.649 143.179 105.128C144.134 104.667 145.15 104.323 146.117 103.85C144.563 103.328 142.947 102.748 141.331 102.168C143.669 101.825 145.995 101.41 148.333 101.067C147.5 100.664 146.717 100.261 145.885 99.7878C149.055 99.5036 152.164 99.1483 155.334 98.8049C154.502 98.1063 153.718 97.4195 152.886 96.7208C155.04 96.8392 157.133 97.005 159.288 97.1234C158.81 96.3182 158.394 95.4419 157.917 94.5774C162.764 93.5946 167.795 93.5354 172.642 94.459C172.287 93.5946 171.92 92.7183 171.626 91.8539C176.118 91.2144 180.843 91.6762 185.09 93.2985C184.845 92.5407 184.613 91.7946 184.429 90.9776C187.954 91.2144 191.492 91.4986 195.017 91.7354C194.356 91.096 193.756 90.4565 193.107 89.8289C196.816 90.5868 200.525 91.2736 204.234 92.0315C203.94 91.0486 203.634 90.0065 203.34 89.0237C207.294 90.4092 211.296 91.8657 215.25 93.2512C214.173 92.6709 214.834 90.9302 215.972 90.646C217.172 90.3026 218.371 90.8828 219.387 91.4512C221.125 92.3749 222.802 93.2985 224.528 94.234C224.528 93.713 224.589 93.192 224.712 92.7301C230.82 94.5774 236.915 96.4366 243.023 98.2839C243.207 97.4787 243.317 96.7208 243.439 95.9156C244.994 97.4787 246.548 98.9826 248.103 100.546C247.809 99.622 247.564 98.7457 247.319 97.8813C251.567 99.6812 255.875 101.41 260.184 103.151C259.768 102.867 259.29 102.511 258.862 102.168C263.232 102.748 267.295 105.01 270.05 108.302C269.805 107.438 269.511 106.502 269.266 105.578C272.375 107.023 275.007 109.462 276.745 112.352C277.222 112.589 277.638 112.814 278.067 113.051C278.128 111.831 278.189 110.682 278.067 109.344C279.56 110.907 280.576 112.814 281.298 114.839C281.776 115.075 282.253 115.36 282.73 115.596C283.085 114.957 283.514 114.318 283.514 113.797C283.991 114.081 284.469 114.377 284.885 114.779C286.317 115.881 287.394 117.325 288.239 118.948C288.716 119.185 289.132 119.469 289.56 119.753C289.622 118.533 289.683 117.325 289.499 116.165C291.592 116.402 293.392 117.669 294.763 119.232C296.084 120.795 296.978 122.642 297.81 124.501C297.994 124.963 298.288 125.425 298.594 125.946C299.377 126.526 300.148 127.107 300.932 127.687C300.638 126.124 300.099 124.62 299.193 123.341C299.193 123.519 300.454 124.099 300.454 124.265C304.102 126.751 306.978 130.174 308.827 134.105L310.259 135.325C310.381 134.283 310.552 133.181 310.32 132.317C312.719 134.342 314.384 137.184 315.583 140.192C316.477 141.056 317.383 141.992 318.276 142.856C318.57 142.051 318.937 141.234 319.17 140.429C319.525 141.932 319.953 143.436 320.369 144.999C321.263 145.982 322.168 146.965 323.062 147.889C323.246 147.711 323.356 147.486 323.478 147.309C325.632 149.452 327.725 152.176 329.109 155.006C329.402 155.349 329.708 155.764 330.063 156.166C329.819 154.366 329.77 152.578 329.341 150.897C331.618 154.307 333.405 158.073 334.372 162.016C334.617 162.359 334.849 162.715 335.094 163.058C335.033 161.152 334.8 159.233 334.262 157.386C337.787 161.838 340.064 167.226 341.018 172.721C341.08 172.839 341.141 172.958 341.202 173.064C341.018 170.578 340.847 167.736 340.663 165.367C343.234 170.341 344.911 175.729 345.804 181.223C346.049 181.567 346.282 181.922 346.526 182.325C346.71 180.939 346.881 179.542 347.004 178.097C348.681 178.796 349.403 180.702 349.942 182.443C350.541 184.409 351.202 186.434 351.802 188.411C353.712 191.135 355.633 193.799 357.604 196.511C357.898 195.469 358.204 194.427 358.497 193.385C359.697 197.316 361.961 200.963 364.899 203.924C365.021 202.704 365.144 201.496 365.254 200.277C366.686 202.42 368.192 204.563 369.746 206.754C370.224 207.512 370.762 208.317 371.301 209.075C371.423 208.092 371.546 207.109 371.656 206.126C373.455 208.092 375.242 210.058 377.041 212.035C376.98 211.171 376.858 210.354 376.797 209.489C379.306 211.23 381.827 212.959 384.337 214.641C384.153 213.942 384.043 213.255 383.859 212.556C384.153 213.835 385.475 215.339 387.152 216.606C387.274 216.784 387.446 216.891 387.629 217.009C388.89 217.293 389.906 217.471 390.677 217.589C392.048 217.826 394.386 218.11 397.495 218.809H397.556C403.664 220.194 412.514 223.261 421.547 230.734C422.208 231.195 422.746 231.716 423.407 232.297L423.469 232.356C429.209 237.448 434.962 244.458 440.103 254.002V254.062C440.225 254.239 440.348 254.464 440.458 254.701C440.458 254.701 449.736 260.835 450.63 276.182C450.691 276.821 450.752 277.508 450.752 278.207V278.787C450.752 278.787 451.89 280.871 453.739 284.282C453.739 284.341 453.739 284.341 453.739 284.4C456.493 289.374 460.557 297.189 464.388 305.36C464.449 305.478 464.51 305.597 464.571 305.703C465.293 307.207 465.942 308.711 466.664 310.215C466.787 310.618 466.958 310.973 467.142 311.376C468.035 313.401 468.941 315.425 469.712 317.391C469.773 317.51 469.773 317.628 469.835 317.735C470.19 318.658 470.557 319.535 470.851 320.399C471.328 321.5 471.744 322.602 472.111 323.703C472.833 325.728 473.433 327.634 473.911 329.375C475.233 334.443 475.477 338.375 473.923 339.997Z" fill="#474646"/>
<path d="M423.42 232.214C423.42 232.214 423.42 232.273 423.42 232.332C423.297 232.912 422.881 235.34 421.988 237.365C421.327 238.987 420.372 240.314 419.05 240.432C415.88 240.61 413.37 238.064 411.326 235.683C406.663 230.236 402.171 224.221 397.507 218.785C397.446 218.726 397.385 218.667 397.323 218.608C398.584 217.388 399.123 216.287 399.062 214.617C399.894 215.718 400.739 216.76 401.632 217.802C401.816 216.002 401.987 214.155 402.171 212.355C403.064 215.363 405.108 218.087 407.74 219.934C407.862 219.069 407.985 218.134 408.156 217.21C409.833 219.117 411.51 220.976 413.236 222.883C413.113 221.379 413.052 219.875 412.942 218.371C414.803 221.26 416.651 224.161 418.511 226.992C418.573 225.665 418.695 224.327 418.756 223.001C419.111 225.085 419.895 227.051 420.91 228.969C421.204 229.49 421.571 230.07 421.988 230.532C422.697 231.456 423.42 232.214 423.42 232.214Z" fill="#474646"/>
<path d="M369.146 388.276C369.869 389.199 373.749 394.469 374.349 398.235C374.349 398.235 370.04 395.511 366.87 391.343C367.225 391.982 368.131 393.77 369.269 398.235C369.269 398.235 366.698 396.269 364.716 393.32C362.806 390.372 359.085 391.355 357.114 391.058C356.098 390.881 353.589 389.436 351.435 388.11C351.374 388.11 351.374 388.051 351.312 387.991C349.403 386.772 347.726 385.623 347.726 385.623L355.56 376.245L356.637 376.588H356.71L363.051 378.494C363.051 378.494 374.361 379.477 376.393 381.159C378.363 382.9 383.627 393.368 383.627 393.368C383.627 393.368 379.563 391.686 377.47 389.318C375.793 387.411 375.071 386.772 374.838 386.594C375.193 387.174 378.192 391.923 379.086 396.15C379.086 396.15 374.593 394.007 371.852 391.058C370.113 389.199 369.452 388.513 369.146 388.276Z" fill="#BD7D00"/>
<path d="M232.252 325.467C230.575 322.341 229.681 321.015 229.204 320.553C229.865 322.353 232.558 330.216 232.435 336.764C232.435 336.764 226.156 331.897 222.802 326.403C222.203 325.479 221.725 324.721 221.37 324.034C220.832 323.17 220.415 322.59 220.109 322.128C219.987 321.891 219.865 321.725 219.754 321.548C219.816 321.725 219.877 321.95 219.999 322.187C220.244 322.767 220.599 323.573 221.015 324.508C222.509 328.333 224.54 334.348 224.308 338.576C224.308 338.576 219.4 333.827 215.813 327.113C215.519 326.651 215.275 326.13 214.981 325.609C215.103 325.953 215.226 326.474 215.336 327.172C215.691 328.913 216.058 331.921 216.291 336.894C216.291 336.894 212.875 333.01 210.782 327.753V327.693C210.244 326.308 209.411 325.325 208.445 324.567C205.69 322.483 201.737 322.483 199.534 321.678C198.934 321.441 196.902 319.937 196.78 319.771C195.225 318.552 190.194 314.17 189.839 313.756C190.378 310.345 192.899 306.284 196.486 302.34C199.534 298.977 202.826 298.752 204.919 299.096C205.042 299.096 205.213 299.155 205.335 299.214L207.551 299.972L208.09 300.15L211.321 301.192C211.566 301.251 211.737 301.31 211.86 301.369L214.197 302.068C214.197 302.068 217.845 303.572 221.982 305.538C226.646 307.74 231.97 310.464 233.415 312.193C235.863 315.496 240.355 332.454 240.6 333.839C239.902 333.342 234.639 329.576 232.252 325.467Z" fill="#BD7D00"/>
<path d="M357.726 379.477C356.466 379.359 355.156 379.3 353.834 379.24C354.556 379.939 355.266 380.685 356.049 381.443C354.972 381.384 353.895 381.325 352.879 381.265C353.479 382.307 354.079 383.409 354.678 384.51C353.418 384.107 352.169 383.705 350.97 383.35C351.153 384.628 351.692 385.896 352.524 386.997C351.569 386.417 350.615 385.777 349.709 385.197C349.893 386.18 350.541 387.399 351.325 387.98C349.415 386.76 347.738 385.611 347.738 385.611L348.889 378.992L355.584 376.233L356.661 376.576H356.71C357.665 377.038 358.926 377.855 359.587 378.08C358.094 378.542 356.6 378.258 355.095 377.796C355.988 378.376 356.882 378.897 357.726 379.477Z" fill="#474646"/>
<path d="M344.788 292.997C345.058 292.606 345.315 292.216 345.584 291.813C341.655 292.192 337.714 292.571 333.784 292.95C334.176 292.689 334.556 292.429 334.947 292.18C332.389 292.358 329.843 292.547 327.285 292.725C327.885 292.145 328.472 291.553 329.072 290.972C327.126 290.949 325.192 290.925 323.246 290.901C323.723 290.428 324.213 289.966 324.69 289.492C323.123 289.753 321.544 290.013 319.977 290.274C320.283 289.753 320.577 289.232 320.883 288.71C319.953 288.876 319.096 287.941 319.096 287.017C319.096 286.093 319.684 285.276 320.369 284.625C322.058 283.026 324.384 282.15 326.722 281.771C329.06 281.404 331.447 281.499 333.821 281.594C337.603 281.748 341.435 281.913 345.045 283.003C347.689 283.808 350.982 285.099 353.026 286.958C355.707 289.397 353.393 290.7 351.153 292.026C351.349 292.014 351.557 292.026 351.753 292.002C349.44 292.358 347.114 292.666 344.788 292.997Z" fill="#474646"/>
<path d="M470.875 320.257C470.875 320.316 470.875 320.316 470.814 320.375C470.03 322.696 467.582 322.4 463.996 320.612C462.38 319.807 461.181 318.35 460.104 316.846C452.747 306.769 448.5 294.56 448.023 282.233C447.9 281.25 447.9 280.208 447.9 279.166C447.961 278.408 447.961 277.603 448.316 276.964C448.671 276.265 449.455 275.744 450.177 275.921C450.36 275.921 450.471 275.981 450.593 276.158C450.887 276.218 451.132 276.443 451.315 276.798C451.499 277.141 451.67 277.603 451.731 278.017C451.915 278.941 451.976 279.924 452.625 280.563C452.625 280.386 452.686 280.22 452.747 279.983C453.041 281.428 453.347 282.873 453.702 284.27C453.763 283.926 453.824 283.512 453.886 283.109C454.485 284.495 455.085 285.833 455.685 287.159C455.746 286.697 455.807 286.176 455.869 285.715C456.407 287.337 456.946 289.018 457.423 290.629C457.484 290.345 457.545 289.989 457.607 289.646C457.962 290.925 458.39 292.251 458.806 293.53C458.867 293.187 458.929 292.831 458.929 292.488C459.284 293.767 459.712 295.093 460.067 296.372C460.189 295.851 460.251 295.33 460.361 294.809C460.899 296.491 461.499 298.172 462.099 299.842C462.16 299.605 462.282 299.321 462.393 299.037C462.637 300.197 462.931 301.298 463.225 302.447C463.225 302.044 463.286 301.642 463.347 301.227C463.641 302.613 464.008 303.951 464.363 305.336C464.363 305.514 464.424 305.68 464.486 305.857C464.486 305.798 464.486 305.739 464.547 305.68C464.547 305.443 464.608 305.218 464.73 305.04C465.085 306.082 465.453 307.124 465.808 308.226C465.808 307.989 465.869 307.764 465.93 307.586C466.175 308.451 466.407 309.327 466.652 310.191C466.775 310.712 466.946 311.293 467.068 311.873C467.13 311.695 467.13 311.53 467.13 311.352C467.13 311.174 467.191 311.068 467.191 310.89C467.546 311.814 467.913 312.797 468.268 313.732C468.329 313.389 468.39 312.974 468.513 312.631C468.868 314.194 469.345 315.816 469.712 317.379C469.773 317.498 469.773 317.616 469.835 317.723C469.835 317.32 469.835 316.918 469.896 316.503C470.153 317.77 470.508 318.99 470.875 320.257Z" fill="#474646"/>
<path d="M452.025 273.482C451.78 274.524 451.609 275.685 451.303 276.786C451.119 277.248 450.948 277.769 450.703 278.171C450.642 278.171 450.642 278.231 450.642 278.231C449.858 279.675 449.026 281.12 448.194 282.577C448.133 282.458 448.071 282.34 448.01 282.233C442.93 274.24 437.777 266.318 432.636 258.325C429.283 253.114 425.929 247.845 423.603 242.113C422.942 240.55 422.404 238.987 421.987 237.365C421.51 235.979 421.204 234.523 420.91 233.078C420.727 232.273 420.665 231.278 421.326 230.757C421.388 230.698 421.449 230.698 421.51 230.698C421.632 230.58 421.804 230.52 421.987 230.52C422.342 230.52 422.71 230.639 422.942 230.923C423.725 231.622 424.435 232.368 425.158 233.126L428.744 236.595C428.805 236.418 428.805 236.193 428.866 235.956C429.65 237.057 430.36 238.158 431.143 239.26V238.561C431.975 239.781 432.82 241.048 433.652 242.327C433.714 241.865 433.775 241.403 433.836 240.941C434.436 242.386 435.036 243.83 435.635 245.287V244.304C436.468 245.986 437.312 247.715 438.206 249.396C438.144 249.112 438.145 248.816 438.145 248.532C438.805 250.379 439.466 252.12 440.054 253.979C440.176 253.399 440.299 252.937 440.409 252.357C441.131 253.742 441.902 255.08 442.624 256.466C442.747 256.063 442.869 255.601 442.979 255.187C443.812 256.572 444.656 258.029 445.489 259.414C445.55 259.012 445.55 258.656 445.55 258.254C446.382 259.935 447.227 261.617 448.059 263.286V262.008C448.536 263.855 448.953 265.773 449.43 267.62C449.491 267.218 449.614 266.815 449.675 266.401C449.92 267.62 450.152 268.828 450.397 270.107C450.458 269.823 450.581 269.586 450.642 269.302C450.703 271.102 450.825 272.89 450.887 274.69C451.242 274.299 451.658 273.897 452.025 273.482Z" fill="#474646"/>
<path opacity="0.2" d="M402.305 284.992C402.305 284.992 414.68 294.075 416.076 288.272C417.471 282.482 409.906 273.719 406.491 272.487C403.493 271.41 388.425 274.086 402.305 284.992Z" fill="#000854"/>
<path d="M403.101 285.43C403.101 285.43 414.484 293.779 415.77 288.45C417.055 283.121 410.09 275.057 406.957 273.932C404.203 272.926 390.334 275.401 403.101 285.43Z" fill="#232736"/>
<path d="M410.396 280.386C410.396 280.859 410.004 281.238 409.515 281.238C409.025 281.238 408.633 280.859 408.633 280.386C408.633 279.912 409.025 279.533 409.515 279.533C410.004 279.533 410.396 279.924 410.396 280.386Z" fill="white"/>
<path d="M473.862 329.351C473.446 330.109 472.907 330.796 472.307 331.495C470.275 333.863 467.228 335.9 464.167 335.083C462.735 334.68 461.597 333.697 460.459 332.762L453.812 327.208C454.473 327.267 455.134 327.267 455.844 327.326C453.335 326.687 451.242 324.603 450.581 322.175C449.565 321.192 447.949 319.854 446.933 318.931C446.04 318.173 445.195 317.368 444.302 316.61C444.302 315.627 443.579 314.703 442.563 314.348C442.98 314.407 443.347 314.526 443.702 314.585C442.502 313.886 441.254 313.199 440.054 312.501C440.715 312.619 441.315 312.678 441.964 312.785C440.764 311.92 439.565 311.044 438.377 310.18C439.038 310.357 439.638 310.464 440.287 310.641C439.087 309.481 437.839 308.32 436.639 307.172C437.239 307.349 437.839 307.456 438.438 307.634C437.239 306.011 436.039 304.33 434.913 302.719C435.452 302.897 435.99 303.004 436.529 303.181C435.158 301.677 433.836 300.233 432.514 298.776C432.93 298.835 433.408 298.954 433.885 299.013C432.686 297.971 431.547 296.929 430.409 295.946C430.886 296.005 431.425 296.064 431.963 296.183C430.348 295.141 428.732 294.099 427.055 293.057C427.594 293.057 428.132 292.997 428.671 292.938C427.239 291.896 425.794 290.854 424.301 289.812C424.84 289.812 425.317 289.871 425.856 289.871C424.24 288.426 422.685 287.029 421.07 285.584C421.853 285.703 422.563 285.821 423.285 285.869C421.314 284.424 419.331 282.92 417.3 281.416C418.622 281.653 419.931 281.878 421.253 282.115C419.638 280.552 418.022 278.989 416.406 277.485C417.006 277.366 417.606 277.248 418.205 277.141C416.945 276.158 415.757 275.176 414.558 274.193C414.974 274.193 415.451 274.193 415.929 274.252C414.79 273.328 413.652 272.405 412.514 271.469C413.052 271.232 413.591 271.007 414.068 270.77C411.975 270.368 409.821 269.965 407.728 269.491C408.328 269.255 408.927 268.97 409.588 268.734C407.973 267.751 406.418 266.709 404.802 265.726C404.386 265.442 403.848 265.027 403.909 264.506C403.97 264.269 404.092 264.163 404.325 264.104C401.387 262.884 398.584 261.617 395.708 260.338C396.246 260.397 396.785 260.397 397.324 260.397C394.447 259.414 391.522 258.372 388.645 257.33C389.245 257.212 389.906 257.093 390.555 257.046C389 256.347 387.507 255.66 386.001 255.021C382.586 254.322 379.416 252.534 377.152 249.929C373.259 249.23 368.057 247.845 364.471 246.223C360.884 244.6 357.653 241.995 356.147 238.407C354.532 234.582 355.193 230.248 355.131 226.08C355.009 220.692 353.577 215.316 350.945 210.567C354.238 213.812 359.746 214.558 363.81 212.414C366.319 211.088 368.057 209.004 369.673 206.742C370.15 207.5 370.689 208.305 371.227 209.063C371.35 208.08 371.472 207.097 371.582 206.115C373.382 208.08 375.169 210.046 376.968 212.024C376.907 211.159 376.784 210.342 376.723 209.478C379.232 211.218 381.754 212.947 384.263 214.629C384.08 213.93 383.969 213.243 383.786 212.545C384.08 213.93 385.695 215.612 387.556 216.997C388.817 217.281 389.833 217.459 390.604 217.577C391.975 217.814 394.374 218.098 397.483 218.797C397.421 218.738 397.36 218.679 397.299 218.619C398.56 217.4 399.098 216.298 399.037 214.629C399.87 215.73 400.714 216.772 401.608 217.814C401.791 216.014 401.963 214.167 402.146 212.367C403.04 215.375 405.084 218.098 407.716 219.946C407.838 219.081 407.96 218.146 408.132 217.222C409.809 219.129 411.486 220.988 413.211 222.894C413.089 221.39 413.028 219.887 412.918 218.383C414.778 221.272 416.626 224.173 418.487 227.003C418.548 225.677 418.671 224.339 418.732 223.013C419.087 225.097 419.87 227.063 420.886 228.981C421.18 229.502 421.547 230.082 421.963 230.544C422.318 230.544 422.685 230.663 422.918 230.947C423.701 231.645 424.411 232.391 425.133 233.149L428.72 236.619C428.781 236.441 428.781 236.216 428.842 235.979C429.626 237.081 430.335 238.182 431.119 239.283V238.585C431.951 239.804 432.796 241.071 433.628 242.35C433.689 241.888 433.75 241.427 433.812 240.965C434.411 242.409 435.011 243.854 435.611 245.311V244.328C436.443 246.009 437.288 247.738 438.181 249.42C438.12 249.136 438.12 248.84 438.12 248.555C438.781 250.403 439.442 252.143 440.03 254.003C440.152 253.422 440.275 252.96 440.385 252.38C441.107 253.766 441.878 255.104 442.6 256.489C442.723 256.087 442.845 255.625 442.955 255.21C443.787 256.596 444.632 258.052 445.464 259.438C445.526 259.035 445.526 258.68 445.526 258.277C446.358 259.959 447.202 261.64 448.035 263.31V262.031C448.512 263.879 448.928 265.797 449.406 267.644C449.467 267.242 449.589 266.839 449.651 266.424C449.895 267.644 450.128 268.852 450.373 270.131C450.434 269.847 450.556 269.61 450.618 269.326C450.679 271.126 450.801 272.914 450.862 274.714C451.217 274.311 451.646 273.908 452.001 273.494C451.756 274.536 451.585 275.697 451.279 276.798C451.462 277.141 451.633 277.603 451.695 278.018C451.878 278.941 451.939 279.924 452.588 280.564C452.588 280.386 452.649 280.22 452.711 279.983C453.004 281.428 453.31 282.873 453.665 284.27C453.727 283.927 453.788 283.512 453.849 283.109C454.449 284.495 455.048 285.833 455.648 287.159C455.709 286.698 455.771 286.176 455.832 285.715C456.37 287.337 456.909 289.018 457.386 290.629C457.448 290.345 457.509 289.99 457.57 289.646C457.925 290.925 458.353 292.251 458.77 293.53C458.831 293.187 458.892 292.832 458.892 292.488C459.247 293.767 459.675 295.093 460.03 296.372C460.153 295.851 460.214 295.33 460.324 294.809C460.863 296.491 461.462 298.172 462.062 299.842C462.123 299.605 462.246 299.321 462.356 299.037C462.601 300.197 462.894 301.298 463.188 302.447C463.188 302.044 463.249 301.642 463.311 301.227C463.604 302.613 463.972 303.951 464.327 305.336C464.388 305.455 464.449 305.573 464.51 305.68C464.51 305.443 464.571 305.218 464.694 305.04C465.049 306.082 465.416 307.124 465.771 308.226C465.771 307.989 465.832 307.764 465.893 307.586C466.138 308.451 466.371 309.327 466.616 310.191C466.738 310.594 466.909 310.949 467.093 311.352C467.093 311.174 467.154 311.068 467.154 310.89C467.509 311.814 467.876 312.797 468.231 313.732C468.292 313.389 468.354 312.974 468.476 312.631C468.831 314.194 469.308 315.816 469.676 317.379C469.737 317.498 469.737 317.616 469.798 317.723C469.798 317.32 469.798 316.918 469.859 316.503C470.153 317.782 470.52 318.99 470.875 320.269C470.875 320.328 470.875 320.328 470.814 320.387C471.291 321.488 471.707 322.59 472.075 323.691C472.785 325.704 473.384 327.611 473.862 329.351Z" fill="#4D4B4B"/>
<path d="M435.917 335.568C433.542 335.13 431.168 334.692 428.781 334.254C430.042 333.733 431.315 333.224 432.575 332.702C429.087 332.087 425.598 331.471 422.11 330.855C423.114 330.689 424.117 330.512 425.109 330.346C422.159 329.458 419.209 328.57 416.259 327.682C417.03 327.575 417.801 327.468 418.573 327.362C416.357 326.438 414.142 325.526 411.926 324.603C412.783 324.567 413.64 324.532 414.496 324.484C410.971 323.833 407.446 323.182 403.921 322.53C404.863 322.684 405.806 322.826 406.761 322.98C404.557 322.069 402.366 321.157 400.163 320.245C400.996 320.245 401.816 320.233 402.648 320.233C401.314 319.759 399.992 319.274 398.658 318.8C397.372 318.338 395.793 318.007 394.631 317.332C394.998 317.012 396.356 317.225 396.871 317.225C395.083 316.373 393.284 315.52 391.497 314.668C391.926 314.656 392.354 314.644 392.782 314.632C390.836 313.578 388.89 312.512 386.944 311.458C387.727 311.541 388.51 311.612 389.294 311.695C386.993 310.132 384.692 308.581 382.39 307.018C382.819 307.041 383.235 307.053 383.663 307.077C381.864 305.206 379.955 303.43 377.935 301.784C378.07 302.021 378.388 302.139 378.645 302.068C378.902 301.997 379.11 301.736 379.098 301.464C379.086 300.919 378.388 300.41 378.033 300.043C377.555 299.546 377.054 299.072 376.515 298.622C375.462 297.734 374.3 296.94 373.076 296.277C373.896 296.455 374.716 296.633 375.536 296.81C374.055 295.366 372.574 293.933 371.105 292.488C371.656 292.464 372.219 292.452 372.77 292.429C371.301 290.795 369.832 289.172 368.375 287.538C368.742 287.597 369.122 287.668 369.489 287.728C368.485 286.472 367.482 285.217 366.49 283.95C367.017 284.104 367.543 284.27 368.057 284.424C367.763 283.382 367.739 282.458 366.992 281.629C365.952 280.481 364.899 279.356 363.846 278.207C364.36 278.242 364.875 278.278 365.401 278.302C364.495 277.058 363.589 275.827 362.684 274.583C363.136 274.82 363.589 275.057 364.042 275.282C363.638 274.299 363.222 273.328 362.818 272.345C363.014 272.511 363.222 272.665 363.418 272.831C362.586 271.351 361.729 269.882 360.909 268.39C361.46 268.366 361.998 268.355 362.549 268.331C359.477 265.347 357.469 261.356 356.931 257.176C363.797 261.415 368.767 267.964 373.088 274.643C377.409 281.321 381.264 288.355 386.625 294.288C403.652 313.164 432.551 317.9 451.266 335.201C449.014 335.888 446.59 337.013 444.204 336.966C441.56 336.93 438.475 336.184 435.917 335.568Z" fill="#474646"/>
<path d="M319.549 230.307C320.149 230.366 320.81 230.485 321.41 230.544C320.798 230.651 320.149 230.591 319.549 230.307Z" fill="#575757"/>
<path d="M387.103 216.583C386.626 220.289 385.965 223.996 384.655 227.524C382.439 233.374 378.253 238.81 372.329 241.19C368.62 242.694 364.434 242.871 360.603 241.77C358.987 241.19 356.172 240.906 354.679 240.207C347.922 237.14 340.492 235.34 333.013 235.115C333.613 234.653 334.213 234.191 334.813 233.729C332.242 233.552 329.721 233.386 327.15 233.208C328.044 232.687 328.95 232.166 329.843 231.645C327.028 231.243 324.213 230.947 321.471 230.544C322.071 230.366 322.67 230.023 323.025 229.502C322.426 229.324 321.765 229.159 321.165 228.981C320.749 229.159 320.381 228.401 319.904 228.401C320.687 228.057 321.336 227.643 322.12 227.299C318.949 226.542 315.84 225.855 312.731 225.097C314.102 224.694 315.424 224.339 316.795 223.936C313.27 223.415 309.671 222.894 306.085 222.373C307.04 222.196 307.994 222.03 308.961 221.793C304.653 221.971 300.405 222.136 296.097 222.314C296.99 221.556 297.835 220.81 298.667 220.052C295.791 220.396 292.927 220.751 290.05 221.094C291.311 220.171 292.682 219.188 294.004 218.252C290.833 218.43 287.724 218.596 284.554 218.773C285.509 218.252 286.415 217.672 287.369 217.151C283.783 217.329 280.184 217.494 276.537 217.672C277.075 217.329 277.198 216.63 277.736 216.287C275.766 215.884 273.722 215.422 271.751 215.008C273.012 214.309 274.199 213.622 275.46 212.983C273.305 212.343 271.212 211.763 269.058 211.135C268.52 211.017 267.92 210.792 267.626 210.33C267.332 209.75 267.626 209.051 268.103 208.649C268.642 208.246 269.303 208.068 269.903 207.95C267.455 207.547 264.933 207.145 262.485 206.73C263.501 206.73 264.456 206.73 265.472 206.671H263.379C261.518 204.587 260.686 202.384 257.932 202.965C258.948 202.325 259.964 201.638 260.98 200.94C257.454 199.495 253.917 197.991 250.392 196.535C252.13 196.535 253.868 196.594 255.533 196.594C253.134 195.611 250.685 194.569 248.286 193.586C249.719 193.586 251.163 193.645 252.595 193.704C249.78 191.04 246.964 188.376 244.161 185.771H247.148C243.917 182.182 240.624 178.535 237.393 174.888C239.192 174.77 241.04 174.604 242.901 174.426C240.685 170.376 238.47 166.386 236.254 162.324C237.748 163.544 239.241 164.692 240.746 165.853C238.347 162.963 235.899 160.062 233.512 157.173C235.128 158.037 236.805 158.973 238.421 159.837C237.527 157.054 236.621 154.343 235.728 151.56C236.205 152.14 236.683 152.661 237.221 153.241C236.927 148.955 236.621 144.68 236.328 140.393C237.405 142.359 238.482 144.277 239.559 146.184C239.682 141.613 239.853 136.983 239.975 132.353C240.636 133.395 241.297 134.437 242.007 135.479C242.252 132.412 242.546 129.286 242.791 126.219C243.39 127.438 244.051 128.646 244.651 129.866C245.251 127.497 245.912 125.176 246.512 122.808C248.311 123.791 250.159 124.715 251.958 125.65C252.02 123.969 252.081 122.287 252.142 120.617C253.403 121.316 254.651 121.944 255.851 122.642C255.606 121.837 255.374 120.961 255.068 120.156C256.977 120.558 258.837 120.961 260.698 121.375C259.915 120.215 259.143 119.054 258.36 117.846C260.098 118.652 261.836 119.469 263.562 120.274C263.024 118.474 262.546 116.745 262.008 115.004C265.178 116.852 268.287 118.77 271.396 120.677C269.964 119.635 270.894 117.171 269.511 116.129C269.511 115.964 271.237 115.561 271.433 115.514C272.057 115.372 272.706 115.265 273.342 115.229C273.82 115.206 274.175 115.336 274.627 115.419C274.995 115.49 275.998 115.573 276.268 115.289C276.439 115.111 276.292 114.839 276.145 114.649C277.455 115.407 278.752 116.165 280.062 116.923C280.282 117.053 280.552 117.195 280.796 117.112C281.017 117.041 281.151 116.804 281.164 116.579C281.176 116.354 281.102 116.129 281.041 115.916C281.812 117.302 282.963 118.498 284.322 119.362C284.432 119.433 284.664 119.658 284.775 119.516C284.848 119.421 284.701 118.983 284.689 118.853C284.628 118.403 284.591 117.941 284.579 117.491C284.566 116.579 284.652 115.668 284.848 114.779C286.28 115.881 287.357 117.325 288.202 118.948C288.679 119.185 289.095 119.469 289.524 119.753C289.585 118.533 289.646 117.325 289.463 116.165C291.556 116.402 293.355 117.669 294.726 119.232C296.048 120.795 296.941 122.642 297.774 124.501C297.957 124.963 298.251 125.425 298.557 125.946C299.34 126.526 300.112 127.107 300.895 127.687C300.601 126.124 300.063 124.62 299.157 123.341C299.157 123.519 300.418 124.099 300.418 124.265C304.065 126.751 306.942 130.174 308.79 134.105L310.222 135.325C310.344 134.283 310.516 133.181 310.283 132.317C312.682 134.342 314.347 137.184 315.546 140.192C316.44 141.056 317.346 141.992 318.239 142.856C318.533 142.051 318.9 141.234 319.133 140.429C319.488 141.932 319.916 143.436 320.332 144.999C321.226 145.982 322.132 146.965 323.025 147.889C323.209 147.711 323.319 147.486 323.441 147.309C325.596 149.452 327.689 152.176 329.072 155.006C329.366 155.349 329.672 155.764 330.027 156.166C329.782 154.366 329.733 152.578 329.305 150.897C331.581 154.307 333.368 158.073 334.335 162.016C334.58 162.359 334.813 162.715 335.057 163.058C334.996 161.152 334.764 159.233 334.225 157.386C337.75 161.838 340.027 167.226 340.982 172.721C341.043 172.839 341.104 172.958 341.165 173.064C340.982 170.578 340.81 167.736 340.627 165.367C343.197 170.341 344.874 175.729 345.768 181.223C346.012 181.567 346.245 181.922 346.49 182.325C346.673 180.939 346.845 179.542 346.967 178.097C348.644 178.796 349.366 180.702 349.905 182.443C350.505 184.409 351.166 186.434 351.765 188.411C353.675 191.135 355.597 193.799 357.567 196.511C357.861 195.469 358.167 194.427 358.461 193.385C359.66 197.316 361.925 200.963 364.862 203.924C364.985 202.704 365.107 201.496 365.217 200.277C366.649 202.42 368.155 204.563 369.71 206.754C370.187 207.512 370.725 208.317 371.264 209.075C371.386 208.092 371.509 207.109 371.619 206.126C373.418 208.092 375.205 210.058 377.005 212.035C376.943 211.171 376.821 210.354 376.76 209.489C379.269 211.23 381.791 212.959 384.3 214.641C384.116 213.942 384.006 213.255 383.823 212.556C384.104 213.8 385.426 215.304 387.103 216.583Z" fill="#4D4B4B"/>
<path d="M356.343 267.431C356.343 267.431 325.143 240.396 341.9 230.449C358.669 220.514 379.22 231.491 386.784 267.597C386.784 267.609 358.265 241.356 356.343 267.431Z" fill="#BD7D00"/>
<path opacity="0.2" d="M386.748 267.466C384.471 264.518 380.53 260.113 378.192 257.342C378.131 257.863 378.008 258.443 377.947 258.964C375.67 257.058 373.394 255.139 371.129 253.233C371.313 254.097 371.484 254.973 371.607 255.838C369.93 254.973 368.314 254.097 366.637 253.233C365.854 255.198 362.99 256.122 361.19 254.914C360.652 256.418 358.914 257.401 357.298 257.176C357.592 258.502 357.175 259.959 356.098 260.823C356.221 262.907 356.282 265.051 356.282 267.135C355.805 265.394 342.805 246.862 354.838 242.232C370.419 236.204 385.965 265.501 386.748 267.466Z" fill="#000854"/>
<path d="M388.119 272.618C387.286 274.062 385.071 274.24 383.516 273.482C382.023 272.724 380.946 271.339 379.685 270.178C373.7 264.328 363.296 263.464 356.355 268.272C356.355 267.928 356.355 267.514 356.294 267.171C356.294 267.171 356.355 267.111 356.294 267.111C356.294 265.027 356.233 262.884 356.111 260.8C357.188 259.935 357.604 258.479 357.31 257.152C358.926 257.389 360.664 256.395 361.203 254.891C363.002 256.11 365.866 255.175 366.649 253.209C368.326 254.074 369.942 254.95 371.619 255.814C371.497 254.95 371.325 254.074 371.142 253.209C373.418 255.116 375.695 257.034 377.959 258.94C378.021 258.419 378.143 257.839 378.204 257.318C380.542 260.101 384.483 264.494 386.76 267.443C386.821 267.502 386.821 267.561 386.821 267.561C387.996 269.255 389.318 270.474 388.119 272.618Z" fill="#474646"/>
<path opacity="0.2" d="M461.181 345.551C453.996 346.83 446.04 346.474 440.96 345.551C440.666 345.492 440.299 345.432 439.883 345.432C439.883 345.432 439.883 345.432 439.822 345.432C428.989 342.425 388.009 321.121 375.499 321.121C362.99 321.121 344.568 320.66 341.692 320.6C341.569 320.482 341.508 320.423 341.447 320.423C339.831 320.423 331.153 325.692 331.153 325.692C323.013 325.976 317.395 333.792 320.149 341.264C325.29 355.154 330.798 373.166 346.894 385.031C335.106 377.512 316.501 363.55 309.022 346.593C308.729 345.953 308.423 345.314 308.129 344.746C308.068 344.627 308.006 344.509 307.945 344.461C297.235 321.252 283.477 306.26 282.277 304.981C282.216 304.922 282.216 304.922 282.216 304.922C282.216 304.922 281.678 304.638 280.723 304.223C277.614 305.028 272.644 304.46 270.429 304.223C271.029 303.702 272.877 301.677 273.722 301.618C270.013 301.855 266.304 302.021 262.595 302.258C263.917 301.215 265.227 300.233 266.549 299.25C263.195 299.191 259.841 299.191 256.438 299.191C257.161 298.551 257.809 297.971 258.531 297.343H248.482C249.204 296.585 249.853 295.899 250.575 295.141C247.344 295.602 244.174 296.064 241.003 296.526C241.664 295.887 242.264 295.2 242.913 294.56C238.666 295.366 234.418 296.183 230.171 296.988C231.064 296.23 231.97 295.425 232.925 294.62C229.632 294.679 226.34 294.738 223.047 294.738C223.647 294.395 224.185 294.039 224.724 293.696H218.077C214.724 294.276 211.382 294.856 208.028 295.437C208.383 294.738 208.689 294.051 209.044 293.353C205.274 293.992 201.504 294.679 197.734 295.318C198.334 294.454 198.873 293.578 199.472 292.713C195.825 292.95 192.177 293.175 188.468 293.353C188.285 293.412 188.052 293.412 187.869 293.412C187.93 293.353 187.991 293.234 187.991 293.175C188.591 292.251 189.129 291.328 189.607 290.392C186.73 290.274 183.805 290.214 180.928 290.108C180.145 290.108 179.435 290.049 178.652 290.049C178.896 289.812 179.068 289.587 179.313 289.35C179.729 288.888 180.145 288.486 180.512 288.071C180.218 288.012 179.912 287.953 179.619 287.894C178.786 288.012 177.881 288.13 177.048 288.237C174.062 288.58 171.063 288.936 168.015 289.338C168.615 288.118 169.214 286.851 169.814 285.632C169.631 285.573 169.398 285.513 169.214 285.513C164.967 285.632 160.659 285.75 156.411 285.857C156.95 285.217 157.488 284.637 158.088 284.009C154.795 283.891 151.503 283.725 148.21 283.607C147.133 283.548 146.117 283.548 145.04 283.488C145.64 282.731 146.301 281.925 146.839 281.12C146.594 280.717 146.423 280.256 146.24 279.794C143.008 279.794 139.777 279.735 136.545 279.735C137.745 278.693 138.944 277.591 140.132 276.549C136.839 276.431 133.546 276.312 130.205 276.265C131.221 275.46 132.237 274.643 133.253 273.837C128.65 272.736 123.975 271.635 119.311 270.593C120.388 269.669 121.404 268.745 122.42 267.869C119.544 267.23 116.679 266.543 113.742 265.903C115.064 265.205 116.312 264.518 117.573 263.819C114.158 262.138 110.694 260.409 107.218 258.727C108.711 258.088 110.155 257.401 111.649 256.762C111.526 256.643 111.355 256.525 111.232 256.359C108.723 255.033 106.141 253.695 103.631 252.368C104.586 252.25 105.541 252.132 106.447 252.025C103.692 250.521 100.938 249.017 98.1844 247.513C99.2003 247.229 100.277 246.874 101.293 246.59C98.8453 245.548 96.3239 244.565 93.8146 243.582C94.9529 243.404 96.0913 243.179 97.2908 243.002C95.1366 241.438 92.9823 239.875 90.828 238.312C91.9051 238.312 92.9823 238.371 94.0594 238.371C91.4278 235.589 88.7961 232.818 86.1645 230.035C87.719 231.255 89.4571 231.835 91.2564 232.237C88.6247 230.497 85.9931 228.827 83.3002 227.145C84.1326 227.027 84.9772 226.861 85.7483 226.684C83.6552 222.859 81.5621 218.987 79.469 215.162C80.5462 215.683 81.6233 216.263 82.6393 216.784C80.9624 211.337 79.2854 205.842 77.5596 200.407C78.5755 200.229 79.5303 200.063 80.5462 199.886C80.6074 193.811 80.6074 187.677 80.6686 181.59C81.2072 182.514 81.6845 183.438 82.1619 184.373C82.5169 181.65 82.8841 178.926 83.1778 176.214C83.8388 171.182 84.4998 166.196 85.0873 161.163C86.2257 163.011 87.364 164.929 88.5023 166.776C89.1633 162.028 89.8243 157.22 90.473 152.424C90.6566 151.039 90.828 149.701 91.0116 148.315C91.7338 149.239 92.3825 150.162 93.1047 151.098C93.7044 147.167 94.243 143.223 94.8428 139.292C95.7975 139.635 96.8135 139.931 97.7804 140.275C97.5968 138.427 97.3643 136.568 97.1807 134.78C99.2125 134.318 101.306 133.916 103.35 133.501C102.566 132.862 101.734 132.282 100.902 131.701C103.595 129.795 106.226 127.876 108.919 125.97C111.857 123.708 114.843 121.399 117.769 119.078C116.63 119.137 115.492 119.137 114.354 119.196C118.601 116.828 122.787 114.448 126.973 112.08C126.019 111.843 125.064 111.558 124.097 111.274C126.667 110.173 129.238 109.072 131.821 107.97C131.037 107.852 130.205 107.686 129.421 107.509C131.698 107.047 134.085 106.703 136.606 106.348C124.464 127.829 105.553 171.643 128.234 205.333C159.704 252.108 182.924 263.914 227.564 268.142C272.204 272.369 272.204 275.614 287.578 279.889C290.748 280.753 295.117 281.913 300.148 283.133C305.473 284.459 310.92 285.099 316.367 285.099C324.861 285.099 333.246 283.536 341.141 280.469C344.433 279.19 351.19 274.335 355.805 273.873C355.866 271.73 356.049 269.527 356.404 267.277C356.343 265.134 356.221 262.99 356.16 260.847C357.237 259.983 357.653 258.479 357.359 257.2L362.439 265.714C367.408 281.227 379.857 312.891 404.741 322.033C438.377 334.384 461.181 345.551 461.181 345.551Z" fill="#000854"/>
<path d="M326.722 281.783C320.357 282.553 313.869 288.805 307.505 289.575C309.39 288.651 311.287 287.728 313.172 286.792C308.765 286.401 304.371 286.022 299.965 285.632C301.446 284.684 302.914 283.749 304.396 282.802C298.961 283.524 293.514 284.234 288.079 284.957C289.34 283.773 290.601 282.577 291.862 281.392C288.043 281.132 284.224 280.871 280.405 280.611C281.8 279.983 283.208 279.356 284.603 278.728C281.457 278.55 278.312 278.361 275.166 278.183C276.341 277.532 277.504 276.881 278.679 276.229C274.542 276.004 270.404 275.779 266.267 275.554C267.589 274.654 268.911 273.754 270.233 272.854C263.452 272.594 256.622 273.494 250.159 275.495C251.652 274.595 253.158 273.707 254.651 272.807C250.159 272.878 245.667 272.961 241.175 273.032C243.574 271.587 245.973 270.131 248.36 268.686C243.194 269.74 238.041 270.794 232.876 271.848C234.332 271.481 235.789 271.114 237.246 270.747C230.856 270.237 224.467 269.728 218.077 269.219C233.182 268.343 246.267 256.856 261.396 257.212C267.063 257.342 272.522 259.165 277.883 260.954C291.409 265.489 304.934 270.024 318.472 274.572C321.018 275.424 323.613 276.312 325.718 277.935C327.823 279.557 356.098 271.268 355.768 273.861L326.722 281.783Z" fill="#474646"/>
<path d="M211.541 268.864C211.859 267.976 212.41 267.182 213.12 266.543C207.49 267.289 201.859 268.035 196.229 268.781C199.24 268.651 202.116 266.945 203.609 264.423C200.268 264.399 196.914 264.364 193.572 264.34C194.98 264.021 196.388 263.701 197.783 263.393C192.703 263.239 187.636 263.097 182.556 262.943C183.744 262.067 184.943 261.202 186.13 260.326C182.054 259.698 177.978 259.071 173.902 258.455C174.98 257.863 176.057 257.259 177.134 256.667C174.049 256.3 170.965 255.944 167.88 255.577C169.263 254.855 170.634 254.121 172.017 253.399C167.978 251.575 163.951 249.739 159.912 247.916C161.479 247.868 163.045 247.809 164.612 247.762C159.422 246.282 154.661 243.451 150.94 239.65C152.2 239.508 153.461 239.354 154.734 239.212C149.838 235.814 144.93 232.427 140.034 229.028C141.6 229.159 143.167 229.289 144.734 229.419C140.315 227.098 136.766 223.261 134.844 218.773C135.945 218.986 137.059 219.211 138.161 219.425C134.036 214.747 131.71 208.613 131.735 202.467C146.007 211.431 160.561 219.969 175.371 228.057C180.439 230.828 185.629 233.575 191.296 234.878C195.776 235.908 200.427 236.003 204.98 236.678C211.149 237.602 217.135 239.615 222.557 242.599C227.343 245.24 231.897 248.887 233.708 253.92C235.238 258.147 234.235 264.103 230.11 266.709C227.968 268.059 225.042 268.497 222.533 268.591C221.468 268.639 211.737 268.307 211.541 268.864Z" fill="#474646"/>
<path d="M122.481 204.717C123.62 205.049 124.77 205.392 125.908 205.724C124.109 202.976 122.31 200.217 120.511 197.47C121.392 198.192 122.273 198.927 123.154 199.649C121.71 195.339 120.266 191.04 118.821 186.73C117.622 185.451 116.435 184.172 115.235 182.893C116.018 181.922 116.789 180.939 117.573 179.968C116.226 179.897 114.88 179.838 113.534 179.767C114.819 176.475 116.104 173.183 117.389 169.891C115.565 170.045 113.729 170.199 111.906 170.341C115.223 167.617 116.545 162.833 115.064 158.866C115.614 159.683 116.177 160.5 116.728 161.317C116.826 159.138 116.936 156.971 117.034 154.793C116.447 154.461 115.847 154.141 115.259 153.81C117.157 151.453 119.066 149.085 120.963 146.728C119.911 146.645 118.87 146.563 117.818 146.48C119.874 142.809 121.918 139.138 123.975 135.467C122.518 135.36 121.061 135.254 119.617 135.147C121.306 132.601 122.995 130.067 124.684 127.521C123.975 127.497 123.277 127.474 122.567 127.45C125.957 121.73 129.36 116.011 132.751 110.291C133.559 108.941 134.501 107.473 136.056 107.035C138.981 106.218 141.245 109.474 142.445 112.186C148.565 126.171 154.685 140.168 160.805 154.153C167.954 170.495 175.702 187.582 190.292 198.335C200.513 205.866 213.157 209.525 224.516 215.339C235.875 221.154 246.769 230.473 248.286 242.812C223.879 250.107 195.8 244.541 176.326 228.531C171.356 224.446 166.754 219.638 160.671 217.352C154.196 214.925 149.043 217.885 142.812 219.069C137.121 220.159 132.983 216.026 129.287 212.331C130.303 212.32 131.331 212.474 132.347 212.474C129.323 209.703 125.762 207.275 122.481 204.717Z" fill="#474646"/>
<path d="M473.923 339.997C471.891 342.14 468.953 343.644 465.599 344.627C460.152 341.382 453.934 336.113 458.843 330.618C466.738 321.761 472.062 323.667 472.062 323.667C474.816 331.483 476.016 337.794 473.923 339.997Z" fill="#232736"/>
</g>
<defs>
<clipPath id="clip0_118_96">
<rect width="450" height="322" fill="white" transform="translate(25 89)"/>
</clipPath>
</defs>
</svg>
